<?xml version="1.0" encoding="utf-8"?>
<!-- Generator: Adobe Illustrator 16.0.0, SVG Export Plug-In . SVG Version: 6.00 Build 0)  -->
<!DOCTYPE svg PUBLIC "-//W3C//DTD SVG 1.1//EN" "http://www.w3.org/Graphics/SVG/1.1/DTD/svg11.dtd">
<svg version="1.1" id="Capa_1" xmlns="http://www.w3.org/2000/svg" xmlns:xlink="http://www.w3.org/1999/xlink" x="0px" y="0px"
	 width="550px" height="181.417px" viewBox="0 134.292 550 181.417" enable-background="new 0 134.292 550 181.417"
	 xml:space="preserve">
<g>
	<path fill-rule="evenodd" clip-rule="evenodd" fill="#FFFFFF" d="M449.812,244.295c0.431-0.377,0.861-0.749,1.291-1.125
		c0,1.816,0,3.633,0,6.166c-6.551,0-13.085,0.063-19.616-0.021c-6.051-0.075-13.07,1.531-17.862-1.002
		c-4.614-2.441-7.003-9.188-10.234-14.134c-6.842-10.474-13.604-20.997-20.375-31.515c-0.977-1.513-1.813-3.112-2.834-4.885
		c4.349-1.888,8.264-3.41,12.021-5.254c5.679-2.787,9.213-7.381,10.173-13.678c2.343-15.261-2.086-27.378-19.07-30.75
		c-2.823-0.561-4.146-0.048-4.143,3.089c0.054,27.611,0.004,55.226,0.078,82.836c0.018,4.515,2.073,7.581,6.895,8.678
		c1.185,0.273,2.393,2.334,2.698,3.759c0.166,0.773-1.547,2.806-2.429,2.814c-15.706,0.173-31.408,0.128-47.399,0.128
		c0-2.334,0-4.122,0-5.894c8.542-3.17,8.865-3.604,8.865-12.768c0.008-23.886,0.008-47.772,0-71.658
		c0-8.718-0.473-9.357-8.881-11.89c0-2.111,0-3.907,0-6.303c6.815,0,13.375-0.104,19.923,0.021
		c13.86,0.265,27.745,0.197,41.551,1.19c6.051,0.435,12.185,2.539,17.838,4.934c10.586,4.486,15.743,12.685,14.799,24.513
		c-0.827,10.334-7.366,15.813-15.954,19.71c-2.131,0.969-4.383,1.678-7.185,2.734c1.99,2.828,3.787,5.395,5.6,7.946
		c7.549,10.607,14.857,21.396,22.771,31.719C441.46,237.735,445.943,240.781,449.812,244.295z M548.551,215.418
		c-1.222,0.865-2.781,1.486-3.601,2.636c-3.526,4.95-6.614,10.224-10.28,15.067c-6.655,8.795-15.694,11.029-26.193,8.827
		c-4.888-1.026-8.203-3.841-8.447-8.781c-0.538-10.798-0.601-21.619-0.683-32.428c-0.004-0.7,1.437-1.987,2.247-2.024
		c8.807-0.399,18.822-0.795,22.576,12.091c0.968,3.332,2.967,3.569,5.716,2.375c0-11.137,0.049-22.106-0.066-33.076
		c-0.017-1.382-0.936-2.756-1.44-4.132c-1.333,0.938-3.497,1.623-3.874,2.852c-3.302,10.862-8.699,12.356-21.306,12.943
		c-3.148,0.147-4.121-1.152-4.064-4.186c0.153-7.454-0.021-14.914,0.075-22.367c0.066-5.212-1.622-12.631,1.071-15.05
		c3.101-2.777,10.165-1.219,15.517-1.374c6.456-0.187,11.571,2.75,14.993,7.966c2.757,4.199,4.599,8.991,7.041,13.414
		c0.624,1.134,1.978,1.866,2.996,2.785c0.952-1.221,2.693-2.421,2.723-3.667c0.232-9.252,0.129-18.514,0.129-27.95
		c-29.306,0-56.969,0-84.729,0c0,2.148,0,3.969,0,5.709c8.302,2.843,8.943,3.778,8.938,12.48
		c-0.008,23.557-0.008,47.112-0.004,70.667c0.004,9.398-0.426,10.064-8.84,13.351c-0.004,1.788-0.004,3.572-0.004,5.521
		c0.927,0.14,1.572,0.331,2.214,0.331c12.201-0.037,24.401-0.142,36.602-0.137c14.406,0.004,28.809,0.182,43.211,0.041
		c1.536-0.017,4.181-1.437,4.403-2.578c1.784-9.076,3.179-18.23,4.471-27.394C550.115,218.117,549.048,216.726,548.551,215.418z
		 M204.561,217.127c-9.686,21.266-26.358,26.791-48.177,23.554c0.184-0.479,0.309-0.972,0.551-1.402
		c16.984-30.175,33.996-60.334,50.931-90.538c1.219-2.173,1.881-4.658,2.959-7.4c-28.42,0-55.747,0-83.478,0
		c-1.393,11.7-2.85,23.39-4.061,35.102c-0.107,1.033,1.219,2.878,2.214,3.162c0.894,0.252,2.726-0.849,3.317-1.844
		c1.985-3.331,3.5-6.938,5.376-10.34c5.535-10.039,13.651-16.789,25.235-18.312c4.812-0.631,9.773-0.105,15.137-0.105
		c-18.667,33.218-37.196,66.183-55.865,100.271c30.518,0,59.242,0,87.97,0c1.984-12.714,3.938-25.229,5.871-37.618
		C206.196,209.099,205.904,214.174,204.561,217.127z M112.98,249.175c-18.276,0-35.653,0-53.259,0
		c-1.538-3.845-0.838-6.357,3.512-7.417c3.601-0.881,5.033-3.427,4.037-6.919c-1.335-4.685-2.812-9.354-4.675-13.844
		c-0.441-1.06-2.653-1.927-4.068-1.956c-8.805-0.176-17.616-0.176-26.421,0c-1.391,0.027-3.526,0.908-3.994,1.974
		c-1.612,3.677-2.883,7.551-3.824,11.457c-1.132,4.693,0.834,7.831,5.593,9.154c2.529,0.713,4.776,1.664,4.29,5.124
		c-0.536,3.816-3.417,2.633-5.5,2.661c-9.283,0.12-18.565,0.055-27.845,0.055c-1.628-4.292-0.86-6.771,3.533-7.785
		c7.071-1.635,9.602-7.578,11.851-13.438c6.707-17.469,13.384-34.957,19.688-52.574c1.676-4.681,2.08-9.837,2.864-14.808
		c0.667-4.232-0.918-7.429-4.519-9.995c-1.3-0.929-1.583-3.284-2.331-4.989c1.525-0.646,2.997-1.544,4.588-1.898
		c7.354-1.637,14.884-2.655,22.082-4.797c7.006-2.085,7.191-2.439,9.835,4.584c10.396,27.59,20.664,55.228,31.244,82.747
		c2.46,6.395,3.682,13.955,11.928,16.563C112.527,243.372,112.481,246.782,112.98,249.175z M58.8,210.03
		c-4.706-12.615-9.167-24.579-14.11-37.835c-4.629,13.391-8.768,25.357-13.08,37.835C40.855,210.03,49.241,210.03,58.8,210.03z
		 M298.319,141.217c-0.294,3.114-1.494,6.216,2.769,7.079c5.579,1.132,7.068,5.082,7.123,10.085
		c0.028,2.881,0.104,5.759,0.099,8.638c-0.021,17.901,0.328,35.813-0.231,53.698c-0.352,11.236-8.786,19.898-18.619,20.82
		c-12.606,1.181-20.704-4.075-23.665-15.59c-0.795-3.085-1.417-6.313-1.44-9.481c-0.133-18.123-0.328-36.254,0.083-54.369
		c0.146-6.438-0.673-14.515,9.56-14.545c0-2.429,0-4.347,0-6.212c-16.871,0-33.328,0-49.98,0c0,2.084,0,3.895,0,5.734
		c3.836,1.653,8.811,1.651,8.989,7.487c0.186,6.082,0.809,12.153,0.869,18.233c0.149,15.075,0.015,30.151,0.126,45.227
		c0.114,15.203,9.169,27.759,24.017,31.137c8.724,1.978,18.018,2.491,26.992,2.118c15.226-0.637,26.5-10.023,30.025-24.955
		c1.788-7.588,1.796-15.665,2.069-23.54c0.538-15.714,0.691-31.441,1.035-47.164c0.082-3.866,1.97-6.297,5.855-7.152
		c1.42-0.31,2.765-0.958,4.316-1.515c-0.099-2.03-0.182-3.812-0.281-5.734C317.882,141.217,308.164,141.217,298.319,141.217z"/>
	<g>
		<path fill="#FFFFFF" d="M84.496,268.047h2.237v34.358h20.585v1.928H84.496V268.047z"/>
		<path fill="#FFFFFF" d="M117.959,291.529c-0.153,6.149,3.151,11.736,9.606,11.736c4.931,0,8.387-2.896,9.353-7.772h1.931
			c-1.016,6.15-5.033,9.453-11.284,9.453c-7.574,0-11.69-6.001-11.537-13.215c-0.153-7.168,3.659-14.133,11.537-14.133
			c8.132,0,11.895,6.406,11.486,13.931H117.959z M137.12,289.849c-0.153-5.487-3.608-10.57-9.556-10.57
			c-5.794,0-9.201,5.389-9.606,10.57H137.12z"/>
		<path fill="#FFFFFF" d="M151.678,273.277v-5.23h1.931v5.23H151.678z M151.678,304.333v-26.122h1.931v26.122H151.678z"/>
		<path fill="#FFFFFF" d="M168.307,295.643c0.252,4.83,3.965,7.623,8.64,7.623c3.406,0,8.285-1.014,8.285-5.537
			c0-8.844-17.943-2.744-17.943-13.417c0-5.132,5.032-6.713,9.455-6.713c5.49,0,9.657,2.392,9.657,8.335h-1.933
			c0-4.727-3.354-6.655-7.725-6.655c-3.507,0-7.522,1.32-7.522,5.033c0,4.217,4.472,4.775,8.691,5.744
			c5.184,0.964,9.25,2.234,9.25,7.673c0,5.641-5.641,7.218-10.216,7.218c-5.947,0-10.419-3.203-10.572-9.304H168.307z"/>
		<path fill="#FFFFFF" d="M220.165,304.333h-1.93v-5.586h-0.102c-1.372,3.91-5.235,6.199-9.353,6.199
			c-9.198,0-9.302-7.371-9.302-10.57v-16.165h1.933v16.521c0,2.642,0.304,8.534,7.42,8.534c5.896,0,9.403-4.568,9.403-10.926
			v-14.129h1.93V304.333z"/>
		<path fill="#FFFFFF" d="M235.433,284.005h0.153c0.964-3.455,5.285-6.101,10.011-5.947v1.933c-2.032-0.256-4.828,0.253-7.215,2.541
			c-1.881,2.032-2.796,3.609-2.949,7.524v14.277h-1.931v-26.122h1.931V284.005z"/>
		<path fill="#FFFFFF" d="M256.031,291.529c-0.153,6.149,3.152,11.736,9.605,11.736c4.932,0,8.387-2.896,9.354-7.772h1.931
			c-1.017,6.15-5.033,9.453-11.284,9.453c-7.573,0-11.689-6.001-11.536-13.215c-0.153-7.168,3.659-14.133,11.536-14.133
			c8.132,0,11.895,6.406,11.489,13.931H256.031z M275.192,289.849c-0.153-5.487-3.609-10.57-9.556-10.57
			c-5.793,0-9.2,5.389-9.605,10.57H275.192z"/>
		<path fill="#FFFFFF" d="M311.409,268.047h2.238v34.358h20.586v1.928h-22.824V268.047z"/>
		<path fill="#FFFFFF" d="M344.568,273.277v-5.23h1.933v5.23H344.568z M344.568,304.333v-26.122h1.933v26.122H344.568z"/>
		<path fill="#FFFFFF" d="M370.243,304.333h-2.388l-10.521-26.122h2.239l9.452,23.888h0.099l8.845-23.888h2.136L370.243,304.333z"/>
		<path fill="#FFFFFF" d="M390.949,273.277v-5.23h1.932v5.23H390.949z M390.949,304.333v-26.122h1.932v26.122H390.949z"/>
		<path fill="#FFFFFF" d="M406.662,278.211h1.929v5.591h0.104c1.369-3.915,5.234-6.203,9.349-6.203
			c9.204,0,9.303,7.374,9.303,10.574v16.16h-1.928v-16.517c0-2.645-0.307-8.538-7.425-8.538c-5.894,0-9.403,4.573-9.403,10.926
			v14.129h-1.929V278.211z"/>
		<path fill="#FFFFFF" d="M462.285,278.211v24.752c0,2.033,0,11.742-11.281,11.337c-5.546,0-9.966-2.086-10.219-8.137h1.933
			c0.406,4.627,4.064,6.456,8.336,6.456c9.146,0,9.299-7.47,9.299-9.195v-6.002h-0.104c-1.829,3.865-4.979,5.947-9.452,5.947
			c-7.673,0-11.282-5.641-11.282-12.907c0-6.912,3.965-12.863,11.282-12.863c4.118,0,7.979,2.186,9.452,6.05h0.104v-5.438H462.285z
			 M441.444,290.462c0,6.149,3.203,11.231,9.354,11.231c6.357,0,9.506-5.339,9.506-11.231c0-5.898-3.148-11.184-9.506-11.184
			C444.498,279.278,441.444,284.92,441.444,290.462z"/>
	</g>
</g>
</svg>
