<?xml version="1.0" encoding="utf-8"?>
<!-- Generator: Adobe Illustrator 16.0.0, SVG Export Plug-In . SVG Version: 6.00 Build 0)  -->
<!DOCTYPE svg PUBLIC "-//W3C//DTD SVG 1.1//EN" "http://www.w3.org/Graphics/SVG/1.1/DTD/svg11.dtd">
<svg version="1.1" id="Capa_1" xmlns="http://www.w3.org/2000/svg" xmlns:xlink="http://www.w3.org/1999/xlink" x="0px" y="0px"
	 width="566.929px" height="130.394px" viewBox="-8.464 0 566.929 130.394" enable-background="new -8.464 0 566.929 130.394"
	 xml:space="preserve">
<g>
	<g>
		<path fill-rule="evenodd" clip-rule="evenodd" fill="#FFFFFF" d="M38.685,62.82H26.722c-9.961,0-18.107,8.152-18.107,18.108
			c0,9.961,8.149,18.112,18.107,18.112h31.506V72.912h-4.14v21.986H26.722c-7.679,0-13.967-6.283-13.967-13.97
			c0-7.679,6.286-13.97,13.967-13.97h11.962V62.82z"/>
		<path fill-rule="evenodd" clip-rule="evenodd" fill="#FFFFFF" d="M47.422,30.744H32.705c-9.962,0-18.112,8.146-18.112,18.106
			s8.15,18.108,18.112,18.108h5.979V62.82h-5.979c-7.687,0-13.972-6.285-13.972-13.97c0-7.681,6.285-13.97,13.972-13.97h14.717
			V30.744z"/>
		<path fill-rule="evenodd" clip-rule="evenodd" fill="#FFFFFF" d="M58.228,56.872V34.88h21.389c7.687,0,13.97,6.289,13.97,13.97
			c0,7.685-6.283,13.97-13.97,13.97h-5.98v4.139h5.98c9.961,0,18.109-8.147,18.109-18.108s-8.148-18.106-18.109-18.106H54.088
			v26.128H58.228z"/>
		<path fill-rule="evenodd" clip-rule="evenodd" fill="#FFFFFF" d="M73.636,66.958h11.96c7.685,0,13.972,6.291,13.972,13.97
			c0,7.687-6.288,13.97-13.972,13.97H64.9v4.143h20.697c9.961,0,18.11-8.151,18.11-18.112c0-9.956-8.151-18.108-18.11-18.108h-11.96
			V66.958z"/>
		<path fill-rule="evenodd" clip-rule="evenodd" fill="#FFFFFF" d="M54.088,125.338c-15.88-0.532-30.206-7.187-40.697-17.677
			C2.446,96.715-4.324,81.592-4.324,64.894c0-15.078,5.546-29.003,14.823-39.679C19.285,15.1,31.425,7.895,45.362,5.375L45.36,34.88
			h4.127V0.574l-2.348,0.332C31.193,3.154,17.294,11.104,7.378,22.516c-9.916,11.41-15.842,26.28-15.842,42.378
			c0,17.842,7.237,33.998,18.927,45.696c11.238,11.237,26.606,18.356,43.625,18.892V125.338z"/>
		<path fill-rule="evenodd" clip-rule="evenodd" fill="#FFFFFF" d="M58.228,5.056c15.878,0.534,30.208,7.187,40.7,17.678
			c10.948,10.947,17.713,26.067,17.713,42.771c0,15.076-5.543,29-14.821,39.678c-8.787,10.112-20.924,17.317-34.861,19.837V94.898
			h-4.122v34.922l2.342-0.328c15.944-2.251,29.848-10.198,39.758-21.613c9.916-11.409,15.843-26.279,15.843-42.374
			c0-17.846-7.23-34.003-18.925-45.696C90.613,8.567,75.252,1.45,58.228,0.915V5.056z"/>
	</g>
	<g>
		<path fill="#FFFFFF" d="M168.648,48.747c1.833-0.956,3.267-2.308,4.319-4.053c1.038-1.741,1.558-3.748,1.558-6.012
			c0-3.703-1.454-6.616-4.375-8.73c-2.923-2.11-7.081-3.164-12.483-3.164H136.22v45.754h22.754c5.839,0,10.282-1.077,13.333-3.235
			c3.049-2.156,4.582-5.216,4.582-9.183c0-2.875-0.75-5.284-2.229-7.225C173.181,50.958,171.175,49.579,168.648,48.747z
			 M144.722,33.454h12.026c2.963,0,5.235,0.53,6.831,1.602c1.588,1.065,2.383,2.645,2.383,4.736c0,2.049-0.795,3.609-2.383,4.674
			c-1.596,1.071-3.867,1.601-6.831,1.601h-12.026V33.454z M158.449,65.878h-13.728V52.67h13.728c6.578,0,9.873,2.201,9.873,6.601
			C168.323,63.677,165.028,65.878,158.449,65.878z M194.471,65.419h25.814v7.123h-34.311V26.788h33.401v7.12h-24.905v11.9h22.091
			v6.996h-22.091V65.419z M277.035,48.946c2.178-0.873,3.884-2.195,5.127-3.957c1.243-1.763,1.862-3.911,1.862-6.438
			c0-3.749-1.401-6.647-4.214-8.695c-2.809-2.048-6.769-3.068-11.864-3.068h-19.74v45.754h21.048c5.662,0,9.945-1.061,12.849-3.168
			c2.891-2.115,4.347-5.137,4.347-9.053c0-3.051-0.825-5.549-2.453-7.488C282.361,50.895,280.039,49.597,277.035,48.946z
			 M253.041,30.771h14.579c3.703,0,6.556,0.709,8.567,2.123c2.002,1.419,3.004,3.48,3.004,6.176c0,2.707-1.002,4.766-3.004,6.181
			c-2.012,1.418-4.864,2.126-8.567,2.126h-14.579V30.771z M278.468,66.464c-2.092,1.396-5.184,2.094-9.281,2.094h-16.146V51.362
			h16.146c8.285,0,12.425,2.855,12.425,8.566C281.612,62.891,280.567,65.071,278.468,66.464z M311.09,26.788l-20.91,45.754h5.028
			l5.492-12.221h25.494l5.495,12.221h5.097l-20.917-45.754H311.09z M302.467,56.396l10.979-24.58l10.98,24.58H302.467z
			 M346.947,39.985c-1.677,2.879-2.509,6.104-2.509,9.681c0,3.573,0.832,6.798,2.509,9.674c1.678,2.875,4.004,5.144,6.973,6.796
			c2.957,1.657,6.245,2.487,9.861,2.487c5.493,0,10.004-1.835,13.533-5.494l3.077,3.078c-2.007,2.176-4.458,3.843-7.355,4.998
			c-2.903,1.151-6.057,1.734-9.448,1.734c-4.536,0-8.618-1.008-12.251-3.012c-3.647-2.005-6.501-4.78-8.567-8.334
			c-2.072-3.553-3.107-7.529-3.107-11.928c0-4.403,1.035-8.379,3.107-11.934c2.066-3.548,4.936-6.327,8.593-8.334
			c3.662-2.007,7.758-3.008,12.282-3.008c3.411,0,6.541,0.568,9.417,1.699c2.886,1.134,5.323,2.793,7.33,4.967l-3.077,3.076
			c-3.574-3.62-8.087-5.427-13.533-5.427c-3.616,0-6.904,0.825-9.861,2.487C350.95,34.848,348.624,37.112,346.947,39.985z
			 M403.143,26.788l-20.922,45.754h5.029l5.495-12.221h25.501l5.488,12.221h5.097l-20.917-45.754H403.143z M394.51,56.396
			l10.983-24.58l10.98,24.58H394.51z M441.25,68.36h25.626v4.183h-30.467V26.788h4.841V68.36z M488.649,26.788l-20.926,45.754h5.034
			l5.5-12.221h25.491l5.495,12.221h5.092l-20.917-45.754H488.649z M480.016,56.396L491,31.816l10.98,24.58H480.016z M547.284,56.857
			c3.36-1.089,5.939-2.869,7.753-5.33c1.806-2.462,2.704-5.479,2.704-9.055c0-4.878-1.657-8.715-4.967-11.502
			c-3.307-2.793-7.891-4.183-13.722-4.183h-17.138v45.754h4.844v-14.51h12.294c1.258,0,2.481-0.067,3.66-0.198l10.456,14.708h5.296
			L547.284,56.857z M538.916,53.913h-12.157V30.971h12.157c4.531,0,7.992,0.984,10.394,2.97c2.397,1.982,3.598,4.828,3.598,8.532
			c0,3.617-1.2,6.43-3.598,8.433C546.908,52.911,543.448,53.913,538.916,53.913z"/>
		<path fill="#FFFFFF" d="M161.6,88.078c-1.358-0.676-2.908-1.016-4.655-1.016h-7.159v16.371h7.159c1.747,0,3.297-0.338,4.655-1.017
			c1.36-0.678,2.405-1.636,3.156-2.876c0.747-1.239,1.121-2.669,1.121-4.294c0-1.621-0.374-3.049-1.121-4.294
			C164.005,89.713,162.96,88.756,161.6,88.078z M162.08,98.205c-0.49,0.851-1.197,1.508-2.106,1.967
			c-0.914,0.463-1.966,0.689-3.165,0.689h-3.979V89.633h3.979c1.199,0,2.251,0.231,3.165,0.69c0.909,0.46,1.616,1.116,2.106,1.964
			c0.489,0.854,0.739,1.838,0.739,2.959S162.569,97.356,162.08,98.205z M182.476,100.885h9.239v2.548h-12.276V87.062h11.945v2.545
			h-8.909v4.262h7.909v2.499h-7.909V100.885z M216.302,96.279c0.556,0.623,0.831,1.465,0.831,2.521c0,0.909-0.25,1.725-0.745,2.459
			c-0.485,0.732-1.232,1.318-2.232,1.753c-0.992,0.438-2.214,0.655-3.645,0.655c-1.26,0-2.481-0.176-3.66-0.537
			c-1.179-0.359-2.105-0.836-2.794-1.427l1.047-2.36c0.677,0.527,1.498,0.96,2.472,1.296c0.972,0.335,1.954,0.504,2.936,0.504
			c1.217,0,2.121-0.196,2.729-0.587c0.596-0.388,0.898-0.907,0.898-1.543c0-0.471-0.166-0.854-0.505-1.156
			c-0.335-0.306-0.76-0.543-1.277-0.712c-0.512-0.172-1.211-0.368-2.103-0.591c-1.25-0.293-2.257-0.591-3.029-0.884
			c-0.77-0.298-1.431-0.762-1.987-1.393c-0.555-0.631-0.83-1.484-0.83-2.56c0-0.907,0.242-1.732,0.737-2.473
			c0.488-0.739,1.229-1.324,2.219-1.764c0.994-0.437,2.203-0.651,3.638-0.651c0.999,0,1.976,0.12,2.945,0.371
			c0.972,0.25,1.808,0.608,2.507,1.077l-0.964,2.363c-0.709-0.425-1.458-0.742-2.236-0.964c-0.782-0.215-1.54-0.323-2.269-0.323
			c-1.205,0-2.098,0.202-2.684,0.605c-0.585,0.403-0.875,0.944-0.875,1.616c0,0.464,0.167,0.848,0.502,1.146
			c0.333,0.298,0.758,0.527,1.278,0.702c0.509,0.171,1.211,0.369,2.1,0.585c1.222,0.278,2.219,0.571,2.994,0.879
			C215.08,95.191,215.747,95.654,216.302,96.279z M235.532,87.062l-7.371,16.371h3.135l1.61-3.787h8.192l1.631,3.787h3.183
			l-7.388-16.371H235.532z M233.939,97.261l3.063-7.162l3.087,7.162H233.939z M271.126,96.07c0.603-0.894,0.906-1.954,0.906-3.187
			c0-1.198-0.28-2.236-0.845-3.11c-0.563-0.872-1.371-1.539-2.421-2.009c-1.05-0.469-2.284-0.702-3.708-0.702h-6.735v16.371h3.044
			v-4.769h3.691c0.283,0,0.492-0.013,0.636-0.025l3.34,4.794h3.282l-3.769-5.38C269.666,97.617,270.525,96.954,271.126,96.07z
			 M264.918,96.16h-3.552v-6.526h3.552c1.326,0,2.333,0.276,3.017,0.842c0.691,0.561,1.032,1.366,1.032,2.408
			c0,1.045-0.341,1.854-1.032,2.424C267.251,95.874,266.243,96.16,264.918,96.16z M298.555,96.07
			c0.596-0.894,0.898-1.954,0.898-3.187c0-1.198-0.277-2.236-0.844-3.11c-0.552-0.872-1.359-1.539-2.418-2.009
			c-1.048-0.469-2.284-0.702-3.711-0.702h-6.734v16.371h3.044v-4.769h3.69c0.288,0,0.495-0.013,0.634-0.025l3.351,4.794h3.274
			l-3.772-5.38C297.099,97.617,297.956,96.954,298.555,96.07z M292.343,96.16h-3.553v-6.526h3.553c1.33,0,2.335,0.276,3.019,0.842
			c0.692,0.561,1.03,1.366,1.03,2.408c0,1.045-0.338,1.854-1.03,2.424C294.678,95.874,293.673,96.16,292.343,96.16z M325.336,87.916
			c-1.336-0.724-2.841-1.085-4.51-1.085c-1.668,0-3.175,0.361-4.515,1.085c-1.343,0.725-2.395,1.729-3.156,3.02
			c-0.77,1.282-1.146,2.727-1.146,4.312c0,1.594,0.376,3.029,1.146,4.316c0.762,1.287,1.813,2.292,3.156,3.02
			c1.34,0.725,2.847,1.085,4.515,1.085c1.669,0,3.174-0.36,4.51-1.085c1.345-0.728,2.397-1.729,3.158-3.01
			c0.764-1.276,1.147-2.721,1.147-4.326c0-1.606-0.384-3.047-1.147-4.327C327.734,89.64,326.681,88.64,325.336,87.916z
			 M325.83,98.205c-0.497,0.884-1.187,1.567-2.052,2.061c-0.884,0.489-1.86,0.737-2.952,0.737s-2.077-0.248-2.95-0.737
			c-0.871-0.493-1.555-1.177-2.055-2.061c-0.498-0.878-0.748-1.862-0.748-2.958c0-1.091,0.25-2.075,0.748-2.959
			c0.5-0.884,1.184-1.564,2.055-2.057c0.873-0.493,1.858-0.739,2.95-0.739s2.068,0.246,2.952,0.739
			c0.865,0.492,1.555,1.173,2.052,2.057c0.499,0.884,0.75,1.868,0.75,2.959C326.58,96.342,326.329,97.327,325.83,98.205z
			 M346.237,100.861h8.56v2.572h-11.602V87.062h3.042V100.861z M370.581,100.861h8.558v2.572h-11.6V87.062h3.042V100.861z
			 M397.044,87.062l-7.363,16.371h3.132l1.611-3.787h8.188l1.634,3.787h3.184l-7.392-16.371H397.044z M395.453,97.261l3.065-7.162
			l3.084,7.162H395.453z M431.651,88.078c-1.354-0.676-2.909-1.016-4.658-1.016h-7.153v16.371h7.153
			c1.749,0,3.305-0.338,4.658-1.017c1.36-0.678,2.407-1.636,3.154-2.876c0.756-1.239,1.132-2.669,1.132-4.294
			c0-1.621-0.376-3.049-1.132-4.294C434.058,89.713,433.011,88.756,431.651,88.078z M432.124,98.205
			c-0.487,0.851-1.184,1.508-2.102,1.967c-0.91,0.463-1.962,0.689-3.166,0.689h-3.979V89.633h3.979c1.204,0,2.256,0.231,3.166,0.69
			c0.918,0.46,1.614,1.116,2.102,1.964c0.496,0.854,0.747,1.838,0.747,2.959S432.62,97.356,432.124,98.205z M461.647,87.916
			c-1.343-0.724-2.843-1.085-4.514-1.085c-1.665,0-3.17,0.361-4.513,1.085c-1.343,0.725-2.395,1.729-3.156,3.02
			c-0.763,1.282-1.146,2.727-1.146,4.312c0,1.594,0.383,3.029,1.146,4.316c0.762,1.287,1.813,2.292,3.156,3.02
			c1.343,0.725,2.848,1.085,4.513,1.085c1.671,0,3.171-0.36,4.514-1.085c1.341-0.728,2.397-1.729,3.166-3.01
			c0.759-1.276,1.139-2.721,1.139-4.326c0-1.606-0.38-3.047-1.139-4.327C464.044,89.64,462.988,88.64,461.647,87.916z
			 M462.139,98.205c-0.497,0.884-1.182,1.567-2.055,2.061c-0.874,0.489-1.855,0.737-2.951,0.737c-1.09,0-2.069-0.248-2.943-0.737
			c-0.879-0.493-1.563-1.177-2.06-2.061c-0.495-0.878-0.747-1.862-0.747-2.958c0-1.091,0.252-2.075,0.747-2.959
			c0.497-0.884,1.181-1.564,2.06-2.057c0.874-0.493,1.854-0.739,2.943-0.739c1.096,0,2.077,0.246,2.951,0.739
			c0.873,0.492,1.558,1.173,2.055,2.057s0.747,1.868,0.747,2.959C462.886,96.342,462.636,97.327,462.139,98.205z M492.313,96.07
			c0.603-0.894,0.905-1.954,0.905-3.187c0-1.198-0.282-2.236-0.845-3.11c-0.558-0.872-1.363-1.539-2.416-2.009
			c-1.056-0.469-2.292-0.702-3.711-0.702h-6.731v16.371h3.035v-4.769h3.696c0.28,0,0.492-0.013,0.634-0.025l3.338,4.794h3.286
			l-3.771-5.38C490.859,97.617,491.722,96.954,492.313,96.07z M486.103,96.16h-3.553v-6.526h3.553c1.33,0,2.338,0.276,3.021,0.842
			c0.685,0.561,1.032,1.366,1.032,2.408c0,1.045-0.348,1.854-1.032,2.424C488.441,95.874,487.433,96.16,486.103,96.16z
			 M509.977,100.885h9.237v2.548h-12.275V87.062h11.952v2.545h-8.914v4.262h7.904v2.499h-7.904V100.885z M544.632,98.8
			c0,0.909-0.246,1.725-0.732,2.459c-0.497,0.732-1.236,1.318-2.241,1.753c-0.997,0.438-2.208,0.655-3.647,0.655
			c-1.263,0-2.482-0.176-3.658-0.537c-1.176-0.359-2.107-0.836-2.795-1.427l1.053-2.36c0.669,0.527,1.49,0.96,2.462,1.296
			c0.979,0.335,1.956,0.504,2.938,0.504c1.219,0,2.13-0.196,2.726-0.587c0.596-0.388,0.901-0.907,0.901-1.543
			c0-0.471-0.169-0.854-0.505-1.156c-0.335-0.306-0.761-0.543-1.27-0.712c-0.515-0.172-1.22-0.368-2.105-0.591
			c-1.247-0.293-2.262-0.591-3.032-0.884c-0.771-0.298-1.434-0.762-1.981-1.393c-0.558-0.631-0.835-1.484-0.835-2.56
			c0-0.907,0.237-1.732,0.734-2.473c0.495-0.739,1.234-1.324,2.227-1.764c0.984-0.437,2.195-0.651,3.637-0.651
			c0.993,0,1.979,0.12,2.949,0.371c0.961,0.25,1.795,0.608,2.502,1.077l-0.96,2.363c-0.722-0.425-1.466-0.742-2.249-0.964
			c-0.777-0.215-1.537-0.323-2.27-0.323c-1.201,0-2.095,0.202-2.679,0.605c-0.582,0.403-0.88,0.944-0.88,1.616
			c0,0.464,0.176,0.848,0.507,1.146c0.335,0.298,0.763,0.527,1.278,0.702c0.511,0.171,1.213,0.369,2.104,0.585
			c1.213,0.278,2.213,0.571,2.995,0.879c0.774,0.303,1.444,0.766,2.002,1.391C544.357,96.902,544.632,97.744,544.632,98.8z"/>
	</g>
</g>
</svg>
