<?xml version="1.0" encoding="utf-8"?>
<!-- Generator: Adobe Illustrator 16.0.0, SVG Export Plug-In . SVG Version: 6.00 Build 0)  -->
<!DOCTYPE svg PUBLIC "-//W3C//DTD SVG 1.1//EN" "http://www.w3.org/Graphics/SVG/1.1/DTD/svg11.dtd">
<svg version="1.1" id="Capa_1" xmlns="http://www.w3.org/2000/svg" xmlns:xlink="http://www.w3.org/1999/xlink" x="0px" y="0px"
	 width="550px" height="450px" viewBox="0 0 550 450" enable-background="new 0 0 550 450" xml:space="preserve">
<g>
	<g>
		<path fill-rule="evenodd" clip-rule="evenodd" fill="#FFFFFF" d="M232.192,154.147h-27.793c-23.15,0-42.09,18.94-42.09,42.086
			c0,23.147,18.945,42.088,42.09,42.088h73.221v-60.726h-9.62v51.103h-63.601c-17.857,0-32.47-14.609-32.47-32.465
			c0-17.854,14.61-32.464,32.47-32.464h27.793V154.147z"/>
		<path fill-rule="evenodd" clip-rule="evenodd" fill="#FFFFFF" d="M252.501,79.593h-34.208c-23.148,0-42.09,18.938-42.09,42.086
			c0,23.149,18.941,42.09,42.09,42.09h13.898v-9.622h-13.898c-17.858,0-32.468-14.612-32.468-32.468s14.609-32.466,32.468-32.466
			h34.208V79.593z"/>
		<path fill-rule="evenodd" clip-rule="evenodd" fill="#FFFFFF" d="M277.619,140.318V89.212h49.707
			c17.858,0,32.469,14.61,32.469,32.466s-14.61,32.468-32.469,32.468h-13.895v9.622h13.895c23.149,0,42.089-18.94,42.089-42.09
			c0-23.147-18.939-42.086-42.089-42.086h-59.327v60.725H277.619z"/>
		<path fill-rule="evenodd" clip-rule="evenodd" fill="#FFFFFF" d="M313.432,163.769h27.794c17.854,0,32.466,14.61,32.466,32.464
			c0,17.856-14.612,32.465-32.466,32.465h-48.104v9.623h48.104c23.149,0,42.083-18.941,42.083-42.088
			c0-23.146-18.938-42.086-42.083-42.086h-27.794V163.769z"/>
		<path fill-rule="evenodd" clip-rule="evenodd" fill="#FFFFFF" d="M267.999,299.444c-36.904-1.241-70.202-16.705-94.588-41.089
			c-25.438-25.438-41.172-60.582-41.172-99.398c0-35.04,12.892-67.397,34.451-92.212c20.422-23.505,48.627-40.251,81.021-46.11
			l-0.003,68.578h9.585V9.479l-5.448,0.769c-37.056,5.227-69.366,23.7-92.408,50.221c-23.042,26.519-36.815,61.079-36.815,98.487
			c0,41.472,16.81,79.021,43.987,106.2c26.123,26.123,61.831,42.667,101.391,43.916V299.444z"/>
		<path fill-rule="evenodd" clip-rule="evenodd" fill="#FFFFFF" d="M277.619,19.895c36.906,1.24,70.208,16.705,94.587,41.088
			c25.441,25.438,41.176,60.58,41.176,99.399c0,35.038-12.893,67.396-34.451,92.211c-20.425,23.505-48.628,40.254-81.019,46.11
			v-70.005h-9.584v81.16l5.449-0.767c37.056-5.228,69.361-23.702,92.406-50.223c23.037-26.519,36.815-61.083,36.815-98.487
			c0-41.475-16.808-79.022-43.987-106.202c-26.126-26.125-61.829-42.665-101.393-43.911V19.895z"/>
	</g>
	<path fill="#FFFFFF" d="M43.468,369.361c2.376-1.239,4.237-2.994,5.595-5.25c1.353-2.258,2.031-4.855,2.031-7.794
		c0-4.797-1.893-8.568-5.675-11.308c-3.787-2.737-9.18-4.105-16.18-4.105H1.457v59.289h29.477c7.565,0,13.328-1.398,17.281-4.195
		c3.95-2.793,5.929-6.759,5.929-11.897c0-3.727-0.961-6.847-2.88-9.36C49.343,372.228,46.746,370.438,43.468,369.361z
		 M12.469,349.544h15.585c3.838,0,6.787,0.69,8.849,2.074c2.063,1.383,3.093,3.43,3.093,6.14c0,2.656-1.03,4.674-3.093,6.057
		c-2.062,1.384-5.011,2.074-8.849,2.074H12.469V349.544z M30.256,391.556H12.469v-17.112h17.787c8.528,0,12.792,2.852,12.792,8.554
		C43.048,388.704,38.784,391.556,30.256,391.556z M76.928,390.962h33.457v9.231H65.916v-59.289h43.282v9.229H76.928v15.419h28.628
		v9.063H76.928V390.962z M183.904,369.616c2.823-1.128,5.039-2.839,6.648-5.124c1.609-2.286,2.413-5.067,2.413-8.343
		c0-4.857-1.818-8.613-5.463-11.265c-3.641-2.655-8.765-3.98-15.372-3.98h-25.579v59.289h27.273c7.34,0,12.887-1.369,16.644-4.107
		c3.754-2.74,5.636-6.648,5.636-11.729c0-3.954-1.063-7.188-3.178-9.702C190.806,372.143,187.802,370.462,183.904,369.616z
		 M152.819,346.069h18.889c4.798,0,8.496,0.918,11.096,2.753c2.595,1.835,3.895,4.503,3.895,8.003c0,3.505-1.3,6.173-3.895,8.008
		c-2.6,1.834-6.298,2.751-11.096,2.751h-18.889V346.069z M185.767,392.316c-2.71,1.807-6.72,2.711-12.028,2.711h-20.92v-22.276
		h20.92c10.729,0,16.095,3.701,16.095,11.096C189.833,387.686,188.477,390.509,185.767,392.316z M228.035,340.904l-27.104,59.289
		h6.522l7.115-15.837h33.032l7.116,15.837h6.604l-27.104-59.289H228.035z M216.857,379.271l14.229-31.847l14.229,31.847H216.857z
		 M274.494,358.012c-2.175,3.728-3.262,7.906-3.262,12.537s1.087,8.81,3.262,12.535c2.169,3.727,5.181,6.664,9.022,8.81
		c3.834,2.146,8.102,3.219,12.785,3.219c7.115,0,12.957-2.373,17.53-7.117l3.988,3.982c-2.604,2.826-5.776,4.983-9.53,6.479
		c-3.762,1.496-7.839,2.245-12.242,2.245c-5.877,0-11.165-1.3-15.877-3.897c-4.72-2.597-8.417-6.195-11.101-10.801
		c-2.68-4.599-4.021-9.753-4.021-15.455s1.341-10.854,4.021-15.46c2.684-4.602,6.399-8.199,11.137-10.799
		c4.748-2.598,10.056-3.896,15.923-3.896c4.413,0,8.472,0.736,12.196,2.202c3.735,1.469,6.89,3.614,9.494,6.438l-3.988,3.979
		c-4.628-4.686-10.47-7.029-17.53-7.029c-4.684,0-8.951,1.071-12.785,3.219C279.675,351.352,276.663,354.285,274.494,358.012z
		 M347.297,340.904l-27.106,59.289h6.523l7.115-15.837h33.033l7.116,15.837h6.604l-27.103-59.289H347.297z M336.116,379.271
		l14.227-31.847l14.231,31.847H336.116z M396.672,394.773h33.206v5.42h-39.471v-59.289h6.265V394.773z M458.087,340.904
		l-27.111,59.289h6.523l7.121-15.837h33.032l7.116,15.837h6.605l-27.102-59.289H458.087z M446.906,379.271l14.229-31.847
		l14.231,31.847H446.906z M534.06,379.865c4.35-1.409,7.695-3.713,10.038-6.901c2.343-3.192,3.515-7.101,3.515-11.733
		c0-6.321-2.146-11.294-6.438-14.905c-4.289-3.616-10.222-5.421-17.784-5.421h-22.194v59.289h6.266V381.39h15.929
		c1.636,0,3.218-0.083,4.741-0.254l13.555,19.058h6.856L534.06,379.865z M523.217,376.055h-15.755v-29.729h15.755
		c5.873,0,10.363,1.282,13.469,3.853c3.105,2.569,4.659,6.255,4.659,11.053c0,4.688-1.554,8.329-4.659,10.927
		S529.09,376.055,523.217,376.055z"/>
	<path fill="#FFFFFF" d="M34.339,420.323c-1.758-0.883-3.77-1.321-6.032-1.321h-9.272v21.215h9.272c2.263,0,4.274-0.439,6.032-1.318
		c1.758-0.88,3.121-2.121,4.09-3.726c0.971-1.606,1.454-3.462,1.454-5.563c0-2.1-0.483-3.955-1.454-5.561
		C37.46,422.442,36.097,421.199,34.339,420.323z M34.96,433.443c-0.637,1.101-1.547,1.95-2.728,2.544
		c-1.182,0.599-2.55,0.894-4.106,0.894h-5.151v-14.546h5.151c1.557,0,2.925,0.3,4.106,0.896c1.181,0.596,2.091,1.444,2.728,2.545
		c0.638,1.102,0.955,2.378,0.955,3.834C35.915,431.063,35.598,432.342,34.96,433.443z M61.392,436.913h11.97v3.304H57.45v-21.215
		h15.485v3.304H61.392v5.516h10.239v3.241H61.392V436.913z M105.215,430.943c0.716,0.807,1.073,1.898,1.073,3.274
		c0,1.172-0.318,2.231-0.954,3.18c-0.636,0.95-1.602,1.708-2.893,2.273c-1.296,0.566-2.869,0.85-4.729,0.85
		c-1.635,0-3.216-0.233-4.741-0.696c-1.527-0.465-2.733-1.083-3.622-1.849l1.363-3.062c0.87,0.686,1.936,1.245,3.197,1.682
		c1.263,0.434,2.529,0.651,3.803,0.651c1.576,0,2.753-0.252,3.532-0.759c0.775-0.505,1.166-1.172,1.166-1.999
		c0-0.608-0.218-1.108-0.652-1.501s-0.984-0.701-1.651-0.923c-0.666-0.224-1.575-0.476-2.727-0.759
		c-1.618-0.384-2.925-0.768-3.926-1.151c-0.998-0.384-1.86-0.984-2.576-1.803c-0.718-0.817-1.074-1.926-1.074-3.319
		c0-1.172,0.317-2.236,0.955-3.198c0.635-0.96,1.594-1.72,2.876-2.286c1.283-0.567,2.855-0.849,4.713-0.849
		c1.295,0,2.565,0.162,3.819,0.484c1.253,0.322,2.335,0.789,3.244,1.396l-1.245,3.06c-0.928-0.546-1.897-0.96-2.907-1.242
		c-1.011-0.284-1.991-0.423-2.94-0.423c-1.557,0-2.712,0.26-3.471,0.785c-0.757,0.525-1.136,1.223-1.136,2.091
		c0,0.607,0.218,1.101,0.652,1.487c0.435,0.382,0.983,0.686,1.65,0.909c0.669,0.222,1.575,0.476,2.729,0.758
		c1.575,0.361,2.867,0.741,3.878,1.136C103.633,429.534,104.495,430.135,105.215,430.943z M130.128,419.002l-9.546,21.215h4.061
		l2.091-4.91h10.607l2.122,4.91h4.12l-9.575-21.215H130.128z M128.068,432.216l3.971-9.275l4.001,9.275H128.068z M176.253,430.67
		c0.777-1.151,1.168-2.524,1.168-4.119c0-1.556-0.366-2.901-1.093-4.032c-0.728-1.132-1.772-1.999-3.136-2.607
		c-1.362-0.605-2.964-0.909-4.804-0.909h-8.728v21.215h3.94v-6.183h4.787c0.364,0,0.636-0.009,0.819-0.029l4.332,6.212h4.244
		l-4.88-6.97C174.36,432.68,175.475,431.821,176.253,430.67z M168.207,430.793h-4.605v-8.458h4.605c1.718,0,3.021,0.364,3.91,1.092
		c0.89,0.727,1.333,1.77,1.333,3.124c0,1.352-0.443,2.396-1.333,3.134C171.228,430.423,169.925,430.793,168.207,430.793z
		 M211.789,430.67c0.777-1.151,1.168-2.524,1.168-4.119c0-1.556-0.365-2.901-1.092-4.032c-0.729-1.132-1.772-1.999-3.136-2.607
		c-1.362-0.605-2.965-0.909-4.807-0.909h-8.728v21.215h3.94v-6.183h4.787c0.367,0,0.639-0.009,0.821-0.029l4.332,6.212h4.244
		l-4.88-6.97C209.897,432.68,211.011,431.821,211.789,430.67z M203.741,430.793h-4.605v-8.458h4.605
		c1.721,0,3.022,0.364,3.912,1.092c0.889,0.727,1.333,1.77,1.333,3.124c0,1.352-0.444,2.396-1.333,3.134
		C206.764,430.423,205.462,430.793,203.741,430.793z M246.492,420.11c-1.737-0.938-3.687-1.41-5.849-1.41
		c-2.161,0-4.111,0.472-5.85,1.41c-1.736,0.938-3.101,2.24-4.09,3.909c-0.992,1.667-1.486,3.531-1.486,5.59
		c0,2.061,0.494,3.925,1.486,5.593c0.989,1.665,2.354,2.97,4.09,3.908c1.738,0.939,3.688,1.41,5.85,1.41
		c2.162,0,4.111-0.471,5.849-1.41c1.738-0.938,3.103-2.238,4.091-3.895c0.99-1.654,1.486-3.525,1.486-5.606
		c0-2.079-0.496-3.948-1.486-5.606C249.595,422.347,248.231,421.049,246.492,420.11z M247.128,433.443
		c-0.646,1.142-1.533,2.031-2.666,2.668c-1.131,0.635-2.403,0.955-3.818,0.955c-1.416,0-2.686-0.32-3.816-0.955
		c-1.133-0.637-2.022-1.526-2.669-2.668c-0.647-1.141-0.972-2.417-0.972-3.834c0-1.414,0.324-2.691,0.972-3.834
		c0.646-1.142,1.536-2.03,2.669-2.666c1.131-0.637,2.4-0.955,3.816-0.955c1.415,0,2.688,0.318,3.818,0.955
		c1.133,0.636,2.02,1.524,2.666,2.666c0.647,1.143,0.971,2.42,0.971,3.834C248.099,431.026,247.776,432.303,247.128,433.443z
		 M273.572,436.881h11.093v3.336h-15.033v-21.215h3.94V436.881z M305.107,436.881H316.2v3.336h-15.03v-21.215h3.937V436.881z
		 M339.399,419.002l-9.544,21.215h4.061l2.09-4.91h10.605l2.122,4.91h4.121l-9.572-21.215H339.399z M337.34,432.216l3.968-9.275
		l4,9.275H337.34z M384.237,420.323c-1.754-0.883-3.769-1.321-6.03-1.321h-9.271v21.215h9.271c2.262,0,4.276-0.439,6.03-1.318
		c1.762-0.88,3.123-2.121,4.09-3.726c0.974-1.606,1.458-3.462,1.458-5.563c0-2.1-0.484-3.955-1.458-5.561
		C387.36,422.442,385.998,421.199,384.237,420.323z M384.857,433.443c-0.633,1.101-1.543,1.95-2.724,2.544
		c-1.186,0.599-2.552,0.894-4.107,0.894h-5.154v-14.546h5.154c1.556,0,2.922,0.3,4.107,0.896c1.181,0.596,2.091,1.444,2.724,2.545
		c0.64,1.102,0.954,2.378,0.954,3.834C385.811,431.063,385.496,432.342,384.857,433.443z M423.105,420.11
		c-1.739-0.938-3.684-1.41-5.846-1.41c-2.164,0-4.113,0.472-5.852,1.41c-1.736,0.938-3.1,2.24-4.09,3.909
		c-0.991,1.667-1.484,3.531-1.484,5.59c0,2.061,0.493,3.925,1.484,5.593c0.99,1.665,2.354,2.97,4.09,3.908
		c1.738,0.939,3.688,1.41,5.852,1.41c2.162,0,4.106-0.471,5.846-1.41c1.736-0.938,3.103-2.238,4.094-3.895
		c0.987-1.654,1.485-3.525,1.485-5.606c0-2.079-0.498-3.948-1.485-5.606C426.207,422.347,424.841,421.049,423.105,420.11z
		 M423.741,433.443c-0.646,1.142-1.532,2.031-2.666,2.668c-1.131,0.635-2.405,0.955-3.816,0.955c-1.418,0-2.689-0.32-3.82-0.955
		c-1.131-0.637-2.022-1.526-2.669-2.668c-0.642-1.141-0.968-2.417-0.968-3.834c0-1.414,0.326-2.691,0.968-3.834
		c0.646-1.142,1.538-2.03,2.669-2.666c1.131-0.637,2.402-0.955,3.82-0.955c1.411,0,2.686,0.318,3.816,0.955
		c1.134,0.636,2.02,1.524,2.666,2.666c0.647,1.143,0.97,2.42,0.97,3.834C424.711,431.026,424.389,432.303,423.741,433.443z
		 M462.843,430.67c0.778-1.151,1.167-2.524,1.167-4.119c0-1.556-0.365-2.901-1.095-4.032c-0.724-1.132-1.768-1.999-3.135-2.607
		c-1.36-0.605-2.965-0.909-4.802-0.909h-8.728v21.215h3.938v-6.183h4.79c0.363,0,0.636-0.009,0.816-0.029l4.333,6.212h4.245
		l-4.878-6.97C460.948,432.68,462.066,431.821,462.843,430.67z M454.794,430.793h-4.605v-8.458h4.605
		c1.72,0,3.022,0.364,3.908,1.092c0.892,0.727,1.337,1.77,1.337,3.124c0,1.352-0.445,2.396-1.337,3.134
		C457.817,430.423,456.514,430.793,454.794,430.793z M485.725,436.913h11.971v3.304h-15.907v-21.215h15.482v3.304h-11.546v5.516
		h10.244v3.241h-10.244V436.913z M530.625,434.218c0,1.172-0.319,2.231-0.953,3.18c-0.639,0.95-1.604,1.708-2.896,2.273
		c-1.293,0.566-2.869,0.85-4.729,0.85c-1.638,0-3.217-0.233-4.74-0.696c-1.526-0.465-2.732-1.083-3.626-1.849l1.368-3.062
		c0.868,0.686,1.931,1.245,3.194,1.682c1.261,0.434,2.533,0.651,3.804,0.651c1.576,0,2.753-0.252,3.529-0.759
		c0.779-0.505,1.167-1.172,1.167-1.999c0-0.608-0.217-1.108-0.651-1.501c-0.433-0.393-0.981-0.701-1.651-0.923
		c-0.664-0.224-1.574-0.476-2.728-0.759c-1.615-0.384-2.924-0.768-3.923-1.151c-1-0.384-1.858-0.984-2.574-1.803
		c-0.72-0.817-1.079-1.926-1.079-3.319c0-1.172,0.318-2.236,0.956-3.198c0.64-0.96,1.597-1.72,2.878-2.286
		c1.284-0.567,2.856-0.849,4.716-0.849c1.288,0,2.565,0.162,3.817,0.484c1.25,0.322,2.33,0.789,3.239,1.396l-1.238,3.06
		c-0.932-0.546-1.9-0.96-2.911-1.242c-1.014-0.284-1.989-0.423-2.939-0.423c-1.559,0-2.712,0.26-3.47,0.785
		c-0.757,0.525-1.136,1.223-1.136,2.091c0,0.607,0.217,1.101,0.651,1.487c0.434,0.382,0.986,0.686,1.651,0.909
		c0.664,0.222,1.574,0.476,2.728,0.758c1.574,0.361,2.869,0.741,3.877,1.136c1.01,0.394,1.873,0.994,2.593,1.803
		C530.264,431.75,530.625,432.842,530.625,434.218z"/>
</g>
</svg>
