<?xml version="1.0" encoding="utf-8"?>
<!-- Generator: Adobe Illustrator 16.0.0, SVG Export Plug-In . SVG Version: 6.00 Build 0)  -->
<!DOCTYPE svg PUBLIC "-//W3C//DTD SVG 1.1//EN" "http://www.w3.org/Graphics/SVG/1.1/DTD/svg11.dtd">
<svg version="1.1" id="Capa_1" xmlns="http://www.w3.org/2000/svg" xmlns:xlink="http://www.w3.org/1999/xlink" x="0px" y="0px"
	 width="256px" height="256px" viewBox="147 0 256 256" enable-background="new 147 0 256 256" xml:space="preserve">
<path fill="#8392A8" d="M393,226.85V29.142c5.691-2,10-7.475,10-14.142c0-8.275-6.725-15-15-15H162c-8.283,0-15,6.716-15,15
	c0,6.517,4.183,12.075,10,14.142V105c0,2.758,2.242,5,5,5c2.767,0,5-2.242,5-5V30h83v196h-83v-81c0-2.767-2.233-5-5-5
	c-2.758,0-5,2.233-5,5v81.85c-5.692,2-10,7.483-10,14.15c0,8.267,6.733,15,15,15h226c8.283,0,15-6.717,15-15
	C403,234.482,398.817,228.925,393,226.85z M162,20c-2.758,0-5-2.242-5-5s2.242-5,5-5h226c2.759,0,5,2.242,5,5c0,2.767-2.241,5-5,5
	H162z M313,45v15.5c-11.3,2.283-20,12.3-20,24.5c0,2.767,2.241,5,5,5h40c2.759,0,5-2.233,5-5c0-12.192-8.691-22.217-20-24.5V50h60
	v60h-10v-5c0-2.767-2.241-5-5-5s-5,2.233-5,5v20c0,2.758,2.241,5,5,5s5-2.242,5-5v-5h10v106H260V30h123v10h-65
	C315.241,40,313,42.233,313,45z M332.151,80H303.85c2.009-5.692,7.492-10,14.15-10S330.142,74.3,332.151,80z M388,246H162
	c-2.758,0-5-2.242-5-5s2.242-5,5-5h226c2.759,0,5,2.242,5,5S390.759,246,388,246z M235,150c-2.758,0-5-2.242-5-5v-30
	c0-2.767,2.242-5,5-5s5,2.233,5,5v30C240,147.758,237.759,150,235,150z M313,115v-10c0-2.767,2.241-5,5-5c2.758,0,5,2.233,5,5v10
	c0,2.758-2.242,5-5,5C315.241,120,313,117.758,313,115z M313,185v-10c0-2.767,2.241-5,5-5c2.758,0,5,2.233,5,5v10
	c0,2.758-2.242,5-5,5C315.241,190,313,187.758,313,185z M313,155v-20c0-2.767,2.241-5,5-5c2.758,0,5,2.233,5,5v20
	c0,2.758-2.242,5-5,5C315.241,160,313,157.758,313,155z M293,105c0-2.767,2.241-5,5-5c2.758,0,5,2.233,5,5v10c0,2.758-2.242,5-5,5
	c-2.759,0-5-2.242-5-5V105z M303,175v10c0,2.758-2.242,5-5,5c-2.759,0-5-2.242-5-5v-10c0-2.767,2.241-5,5-5
	C300.758,170,303,172.233,303,175z M303,135v20c0,2.758-2.242,5-5,5c-2.759,0-5-2.242-5-5v-20c0-2.767,2.241-5,5-5
	C300.758,130,303,132.233,303,135z M333,115v-10c0-2.767,2.241-5,5-5s5,2.233,5,5v10c0,2.758-2.241,5-5,5S333,117.758,333,115z
	 M333,185v-10c0-2.767,2.241-5,5-5s5,2.233,5,5v10c0,2.758-2.241,5-5,5S333,187.758,333,185z M333,155v-20c0-2.767,2.241-5,5-5
	s5,2.233,5,5v20c0,2.758-2.241,5-5,5S333,157.758,333,155z M157,125c0-2.767,2.242-5,5-5c2.767,0,5,2.233,5,5c0,2.758-2.233,5-5,5
	C159.242,130,157,127.758,157,125z"/>
</svg>
