<?xml version="1.0" encoding="utf-8"?>
<!-- Generator: Adobe Illustrator 16.0.0, SVG Export Plug-In . SVG Version: 6.00 Build 0)  -->
<!DOCTYPE svg PUBLIC "-//W3C//DTD SVG 1.1//EN" "http://www.w3.org/Graphics/SVG/1.1/DTD/svg11.dtd">
<svg version="1.1" id="Capa_1" xmlns="http://www.w3.org/2000/svg" xmlns:xlink="http://www.w3.org/1999/xlink" x="0px" y="0px"
	 width="36px" height="36px" viewBox="0 0 36 36" enable-background="new 0 0 36 36" xml:space="preserve">
<path fill="#FFFFFF" d="M24.412,0H11.587C9.518,0,7.835,1.683,7.835,3.751v28.497c0,2.069,1.683,3.752,3.752,3.752h12.825
	c2.07,0,3.753-1.683,3.753-3.752V3.751C28.165,1.683,26.482,0,24.412,0z M26.119,32.248c0,0.94-0.765,1.705-1.707,1.705H11.587
	c-0.942,0-1.706-0.765-1.706-1.705V3.751c0-0.939,0.764-1.705,1.706-1.705h0.804c0.004,0.074-0.012,0.142,0.009,0.219l0.044,0.181
	c0.188,0.728,0.952,1.323,1.702,1.323h1.732h4.244h1.73c0.75,0,1.516-0.595,1.699-1.323L23.6,2.265
	c0.019-0.077,0.002-0.145,0.009-0.219h0.804c0.942,0,1.707,0.766,1.707,1.705V32.248z M20.928,31.158
	c0,0.539-0.437,0.976-0.976,0.976h-3.904c-0.537,0-0.975-0.437-0.975-0.976c0-0.538,0.438-0.976,0.975-0.976h3.904
	C20.491,30.183,20.928,30.62,20.928,31.158z"/>
</svg>
