<?xml version="1.0" encoding="utf-8"?>
<!-- Generator: Adobe Illustrator 16.0.0, SVG Export Plug-In . SVG Version: 6.00 Build 0)  -->
<!DOCTYPE svg PUBLIC "-//W3C//DTD SVG 1.1//EN" "http://www.w3.org/Graphics/SVG/1.1/DTD/svg11.dtd">
<svg version="1.1" id="Capa_1" xmlns="http://www.w3.org/2000/svg" xmlns:xlink="http://www.w3.org/1999/xlink" x="0px" y="0px"
	 width="256px" height="256px" viewBox="147 0 256 256" enable-background="new 147 0 256 256" xml:space="preserve">
<path fill="#8392A8" d="M300,158c0-2.766,2.242-5,5-5c2.759,0,5,2.234,5,5c0,2.768-2.241,5-5,5C302.242,163,300,160.767,300,158z
	 M275,163c2.758,0,5-2.232,5-5c0-2.766-2.242-5-5-5c-2.758,0-5,2.234-5,5C270,160.767,272.242,163,275,163z M245,163
	c2.758,0,5-2.232,5-5c0-2.766-2.242-5-5-5s-5,2.234-5,5C240,160.767,242.242,163,245,163z M403,138v100c0,2.75-2.242,5-5,5H152
	c-2.758,0-5-2.25-5-5V138c0-2.766,2.242-5,5-5h246C400.758,133,403,135.234,403,138z M220,183h-63v50h63V183z M220,143h-63v30h63
	V143z M320,143h-90v90h90V143z M393,183h-63v50h63V183z M393,143h-63v30h63V143z M351.5,203h20c2.758,0,5-2.25,5-5
	c0-2.766-2.242-5-5-5h-20c-2.758,0-5,2.234-5,5C346.5,200.75,348.742,203,351.5,203z M351.5,163h20c2.758,0,5-2.232,5-5
	c0-2.766-2.242-5-5-5h-20c-2.758,0-5,2.234-5,5C346.5,160.767,348.742,163,351.5,163z M351.5,53h20c2.758,0,5-2.232,5-5
	c0-2.766-2.242-5-5-5h-20c-2.758,0-5,2.234-5,5C346.5,50.767,348.742,53,351.5,53z M198.5,43h-20c-2.758,0-5,2.234-5,5
	c0,2.768,2.242,5,5,5h20c2.758,0,5-2.232,5-5C203.5,45.234,201.259,43,198.5,43z M178.5,163h20c2.758,0,5-2.232,5-5
	c0-2.766-2.242-5-5-5h-20c-2.758,0-5,2.234-5,5C173.5,160.767,175.742,163,178.5,163z M178.5,203h20c2.758,0,5-2.25,5-5
	c0-2.766-2.242-5-5-5h-20c-2.758,0-5,2.234-5,5C173.5,200.75,175.742,203,178.5,203z M240,218v-40c0-2.766,2.242-5,5-5h60
	c2.759,0,5,2.234,5,5v40c0,2.75-2.241,5-5,5h-60C242.242,223,240,220.75,240,218z M250,213h50v-30h-50V213z M285,193h-20
	c-2.758,0-5,2.234-5,5c0,2.75,2.242,5,5,5h20c2.758,0,5-2.25,5-5C290,195.234,287.758,193,285,193z M403,18v50c0,2.768-2.242,5-5,5
	h-73c-2.758,0-5-2.232-5-5V18c0-2.766,2.242-5,5-5h73C400.758,13,403,15.234,403,18z M393,23h-63v40h63V23z M147,68V18
	c0-2.766,2.242-5,5-5h73c2.758,0,5,2.234,5,5v50c0,2.768-2.242,5-5,5h-73C149.242,73,147,70.767,147,68z M157,63h63V23h-63V63z
	 M221.467,94.466L250,65.933V18c0-2.766,2.242-5,5-5h40c2.759,0,5,2.234,5,5v47.934l28.533,28.533
	c1.434,1.418,1.858,3.566,1.084,5.434c-0.775,1.883-2.592,3.1-4.617,3.1h-30c-2.758,0-5-2.232-5-5c0-2.766,2.242-5,5-5h17.934
	l-20-20h-35.867l-20,20H255c2.758,0,5,2.234,5,5c0,2.768-2.242,5-5,5h-30c-2.025,0-3.842-1.217-4.617-3.1
	C219.609,98.033,220.033,95.884,221.467,94.466z M260,63h30V23h-30V63z M270,98c0,2.768,2.242,5,5,5c2.758,0,5-2.232,5-5
	c0-2.766-2.242-5-5-5C272.242,93,270,95.234,270,98z"/>
</svg>
