<?xml version="1.0" encoding="utf-8"?>
<!-- Generator: Adobe Illustrator 16.0.0, SVG Export Plug-In . SVG Version: 6.00 Build 0)  -->
<!DOCTYPE svg PUBLIC "-//W3C//DTD SVG 1.1//EN" "http://www.w3.org/Graphics/SVG/1.1/DTD/svg11.dtd">
<svg version="1.1" id="Capa_1" xmlns="http://www.w3.org/2000/svg" xmlns:xlink="http://www.w3.org/1999/xlink" x="0px" y="0px"
	 width="256px" height="256px" viewBox="147 0 256 256" enable-background="new 147 0 256 256" xml:space="preserve">
<g>
	<path fill="#8392A8" d="M399.276,96.2c-2.351-0.292-4.483,1.367-4.775,3.708l-0.566,4.417c-9.066-0.9-17.226,5.55-18.459,14.583
		l-3.574,27.15c-1.309,9.275,5.107,17.858,14.383,19.2l-0.825,6.508c-0.558,4.25-4.175,7.425-8.458,7.433h-1.992
		c-2.041-9.925-10.766-17.05-20.908-17.066h-21.333c-1.399,0-2.783,0.142-4.158,0.417l-8.858-21.75h36.316
		c4.717,0,8.533-3.817,8.533-8.533v-8.534c0-4.708-3.816-8.525-8.533-8.533H193.934c-4.717,0.008-8.534,3.825-8.534,8.533v8.534
		c0,4.716,3.817,8.533,8.534,8.533h36.316l-8.858,21.75c-1.375-0.275-2.758-0.417-4.158-0.417H195.9
		c-10.142,0.017-18.867,7.142-20.908,17.066H173c-4.283-0.008-7.892-3.175-8.458-7.408l-0.825-6.533
		c9.25-1.342,15.683-9.909,14.392-19.175l-3.583-27.208c-1.25-9.025-9.4-15.45-18.475-14.55L155.5,99.9
		c-0.292-2.333-2.425-3.992-4.767-3.7c-2.333,0.3-3.992,2.434-3.7,4.767l7.667,60.967c0.008,0.117-0.042,0.233-0.017,0.35
		c0.008,0.108,0.083,0.191,0.1,0.3l1.3,10.292c0.758,5.642,4.292,10.542,9.408,13.042L153.3,250.949
		c-0.225,1.25,0.1,2.533,0.909,3.518c0.816,0.967,2.017,1.533,3.292,1.533h8.533c1.858,0,3.508-1.217,4.067-2.992l20.4-65.275
		h13.092l3.267,10.483l-21.15,51.901c-0.525,1.324-0.375,2.816,0.417,4c0.792,1.174,2.125,1.883,3.542,1.883h17.067
		c1.733,0,3.292-1.051,3.95-2.658l7.591-18.643l5.717,18.309c0.558,1.775,2.208,2.992,4.075,2.992h8.534
		c1.275,0,2.466-0.566,3.283-1.533c0.808-0.984,1.15-2.275,0.908-3.518l-9.191-48.941l24.941-61.208h36.917l24.942,61.208
		l-9.192,48.941c-0.241,1.242,0.092,2.533,0.9,3.518c0.825,0.967,2.017,1.533,3.292,1.533h8.533c1.866,0,3.517-1.217,4.074-2.992
		l5.717-18.309l7.584,18.643c0.666,1.607,2.225,2.658,3.949,2.658h17.075c1.417,0,2.75-0.709,3.534-1.883
		c0.8-1.184,0.949-2.676,0.416-4l-21.142-51.901l3.267-10.483H359.5l20.4,65.275c0.55,1.775,2.199,2.992,4.066,2.992h8.533
		c1.267,0,2.475-0.566,3.292-1.533c0.808-0.984,1.133-2.268,0.908-3.518l-12.2-65.033c5.125-2.5,8.658-7.408,9.417-13.059
		l1.3-10.275c0.017-0.108,0.083-0.191,0.1-0.3c0.025-0.117-0.024-0.233-0.017-0.358l7.667-60.958
		C403.258,98.633,401.6,96.5,399.276,96.2z M157.125,112.792c2.017-0.142,4.008,0.45,5.642,1.658c1.8,1.342,2.983,3.35,3.309,5.583
		l3.583,27.208c0.658,4.55-2.458,8.8-7.008,9.542L157.125,112.792z M162.892,247.467h-0.258l11.208-59.734h7.725L162.892,247.467z
		 M183.834,179.2c1.808-5.108,6.633-8.525,12.066-8.533h21.333c0.275,0,0.533,0.066,0.816,0.083l-3.441,8.45H183.834z
		 M231.2,247.467l-7.858-25.184l2.316-5.684l5.8,30.867H231.2z M223.259,199.875l-0.025,0.05l-19.375,47.542h-7.85l25.392-62.309
		l0.017-0.067l6.35-15.566l0.008-0.017l0.017-0.042l11.675-28.667h7.85L223.259,199.875z M193.934,132.267v-8.534h162.133v8.534
		H193.934z M318.792,247.467h-0.25l5.808-30.867l2.309,5.684L318.792,247.467z M353.992,247.467h-7.851l-19.358-47.509
		c-0.025-0.058-0.05-0.117-0.075-0.175L302.684,140.8h7.85l11.667,28.633l0.008,0.042l0.017,0.025l6.358,15.591l0.017,0.067
		L353.992,247.467z M335.392,179.2l-3.441-8.45c0.274-0.017,0.542-0.083,0.816-0.083H354.1c5.434,0.008,10.259,3.425,12.067,8.533
		H335.392z M387.359,247.467h-0.25l-18.675-59.734h7.725L387.359,247.467z M387.35,156.783c-2.149-0.35-4.066-1.517-5.383-3.242
		c-1.367-1.809-1.95-4.092-1.617-6.333l3.575-27.142c0.617-4.408,4.525-7.583,8.95-7.275L387.35,156.783z"/>
	<path fill="#8392A8" d="M240.875,55.466h17.059c0,9.425,7.633,17.067,17.066,17.067s17.066-7.642,17.066-17.067h17.059
		c1.809,0,3.408-1.125,4.009-2.816c0.625-1.684,0.108-3.575-1.275-4.733L287.8,27.867v-10.8c-0.008-4.708-3.816-8.525-8.541-8.533
		V4.267C279.259,1.917,277.351,0,275,0c-2.358,0-4.267,1.917-4.267,4.267v4.267c-4.717,0.008-8.533,3.825-8.533,8.533v10.8
		l-24.059,20.05c-1.383,1.158-1.9,3.05-1.292,4.733C237.467,54.341,239.067,55.466,240.875,55.466z M275,64
		c-4.708,0-8.533-3.825-8.533-8.534h17.066C283.533,60.175,279.709,64,275,64z M270.734,17.066h8.525V25.6h-8.525V17.066z
		 M268.009,34.133h13.984l15.357,12.8h-44.7L268.009,34.133z"/>
</g>
</svg>
