<?xml version="1.0" encoding="utf-8"?>
<!-- Generator: Adobe Illustrator 16.0.0, SVG Export Plug-In . SVG Version: 6.00 Build 0)  -->
<!DOCTYPE svg PUBLIC "-//W3C//DTD SVG 1.1//EN" "http://www.w3.org/Graphics/SVG/1.1/DTD/svg11.dtd">
<svg version="1.1" id="Capa_1" xmlns="http://www.w3.org/2000/svg" xmlns:xlink="http://www.w3.org/1999/xlink" x="0px" y="0px"
	 width="256px" height="256px" viewBox="0 0 256 256" enable-background="new 0 0 256 256" xml:space="preserve">
<path fill="#4C5660" d="M252.238,90.771V88c0-5.191-4.224-9.412-9.412-9.412c-5.062,0-9.188,4.015-9.394,9.026L117.959,68.235
	h-5.018V56c0-6.229-5.065-11.294-11.292-11.294c-6.232,0-11.297,5.064-11.297,11.294v12.235H33.879V56
	c0-6.229-5.064-11.294-11.291-11.294c-6.229,0-11.297,5.064-11.297,11.294v12.235H0v143.059h117.923L256,191.018V91.403
	L252.238,90.771z M242.826,86.118c1.038,0,1.883,0.844,1.883,1.882v1.506l-3.768-0.629V88l0,0
	C240.941,86.962,241.785,86.118,242.826,86.118z M97.882,56L97.882,56c0-2.076,1.688-3.765,3.768-3.765
	c2.074,0,3.762,1.688,3.762,3.765v12.235h-7.529V56z M18.821,56c0-2.076,1.691-3.765,3.768-3.765S26.35,53.924,26.35,56v12.235
	h-7.529V56z M33.879,203.765H7.53v-128h26.35v7.529h-18.82v112.941h18.82V203.765z M79.062,188.706h-7.536v-26.354h-7.529v33.883
	h15.065v7.529H41.409v-7.529h15.059v-33.883h-7.529v26.354h-7.529v-7.529h-7.53v7.529H22.588V90.824h11.291v7.529h7.53v-7.529h7.529
	v30.118h7.529V83.294H41.409v-7.529h37.653v7.529H63.997v37.647h7.529V90.824h7.536v7.529h7.523v-7.529h11.297v97.882H86.585v-7.529
	h-7.523V188.706z M248.471,184.512l-128,18.794v-18.364h-7.529v18.823H86.585v-7.529h18.826V83.294H86.585v-7.529h26.356v86.588
	h7.529V76.291l128,21.482V184.512z M112.941,169.882h7.529v7.53h-7.529V169.882z M41.409,113.412h-7.53v-7.529h7.53V113.412z
	 M79.062,158.588h7.523v-7.529h3.768v-22.588h-3.768v-7.529h-7.529v7.529H41.409v-7.529h-7.53v7.529h-3.762v22.588h3.762v7.529h7.53
	v-7.529h37.653V158.588z M37.647,143.529V136h45.177v7.529H37.647z M33.879,166.117h7.53v7.53h-7.53V166.117z M86.585,113.412
	h-7.523v-7.529h7.523V113.412z M86.585,173.647h-7.523v-7.53h7.523V173.647z M143.059,188.706h-7.529V90.824h7.529V188.706z
	 M161.885,184.941h-7.529V94.588h7.529V184.941z M180.706,181.177h-7.529V98.353h7.529V181.177z M199.532,177.412h-7.529v-75.294
	h7.529V177.412z M218.353,173.647h-7.529v-67.765h7.529V173.647z M237.18,169.882h-7.53v-60.235h7.53V169.882z"/>
</svg>
