<svg xmlns="http://www.w3.org/2000/svg" width="85.021" height="80.771" viewBox="0 0 85.021 80.771">
  <g id="Grupo_150" data-name="Grupo 150" transform="translate(-1454.075 -1043.118)">
    <path id="Trazado_140" data-name="Trazado 140" d="M1513.43,1095.889a1.167,1.167,0,0,1-2.334,0,3.505,3.505,0,0,0-3.5-3.5,1.167,1.167,0,0,1,0-2.334A5.841,5.841,0,0,1,1513.43,1095.889Zm-5.834-18.666a1.167,1.167,0,0,0,0,2.334,3.5,3.5,0,0,1,3.5,3.5,1.167,1.167,0,0,0,2.334,0A5.84,5.84,0,0,0,1507.6,1077.223Zm31.5-22.168v67.668a1.167,1.167,0,0,1-1.166,1.166h-67.666a1.167,1.167,0,0,1-1.168-1.166v-30.867a25.492,25.492,0,1,1,31.276-37.967h37.558A1.167,1.167,0,0,1,1539.1,1055.055Zm-17.5,4.668h9.332v-3.5H1521.6Zm2.334,2.334v1.166h4.666v-1.166Zm-44.355,29.061a22.5,22.5,0,1,0-22.5-22.5A22.526,22.526,0,0,0,1479.575,1091.118Zm13.781-1.063h8.406v-2.332h-5.326A25.554,25.554,0,0,1,1493.356,1090.055Zm3.74,19.834h-2.332v7h2.332Zm4.666-9.334h-2.332v21h2.332Zm25.666,14H1525.1v7h2.332Zm4.668,0h-2.332v7h2.332Zm4.666,0h-2.332v7h2.332Zm0-58.332h-3.5v4.666a1.168,1.168,0,0,1-1.166,1.168h-1.168v2.332a1.166,1.166,0,0,1-1.164,1.168h-7a1.167,1.167,0,0,1-1.166-1.168v-2.332h-1.166a1.167,1.167,0,0,1-1.168-1.168v-4.666h-10.5v5.733a7.039,7.039,0,0,0,5.16-3.9,1.167,1.167,0,0,1,2.108,1,9.384,9.384,0,0,1-7.268,5.258v.075a1.166,1.166,0,1,1-2.332,0v-8.166H1504.1v5.417a25.354,25.354,0,0,1,0,13.955v1.628a1.149,1.149,0,0,1-.955,1.123,25.537,25.537,0,0,1-4.383,7.043h13.506a1.167,1.167,0,0,1,0,2.334H1504.1v3.5a1.167,1.167,0,0,1-1.166,1.166h-14.144a25.394,25.394,0,0,1-17.356.387v28.779H1497.1v-2.334h-13.709a2.629,2.629,0,0,1-2.625-2.623v-6.418a2.63,2.63,0,0,1,2.625-2.625H1497.1v-8.166a1.168,1.168,0,0,1,1.166-1.168h4.668a1.159,1.159,0,0,1,.584.159,1.144,1.144,0,0,1,.582-.159h8.168a1.167,1.167,0,0,1,0,2.334H1504.1v21h9.334v-5.834a1.166,1.166,0,0,1,2.332,0v5.834h7v-8.166a1.167,1.167,0,0,1,1.168-1.166h12.832v-4.668h-21v1.168a1.166,1.166,0,1,1-2.332,0v-2.334a1.167,1.167,0,0,1,1.166-1.166h22.166Zm-53.375,53.666a.291.291,0,0,0-.291.291v6.418a.292.292,0,0,0,.291.291h9.043v-7Zm51.043-25.666v4.666a1.166,1.166,0,0,1-1.168,1.166h-2.334v2.334h2.334a1.168,1.168,0,0,1,1.168,1.166v4.666a1.168,1.168,0,0,1-1.168,1.168h-2.334v2.334a1.165,1.165,0,0,1-1.164,1.166h-9.334a1.167,1.167,0,0,1-1.168-1.166v-2.334h-2.332a1.167,1.167,0,0,1-1.168-1.168v-4.666a1.167,1.167,0,0,1,1.168-1.166h2.332v-2.334h-2.332a1.166,1.166,0,0,1-1.168-1.166v-4.666a1.166,1.166,0,0,1,1.168-1.166h2.332v-2.336a1.166,1.166,0,0,1,1.168-1.164h9.334a1.164,1.164,0,0,1,1.164,1.164v2.336h2.334A1.166,1.166,0,0,1,1534.43,1084.223Zm-15.168,10.5H1518.1v2.332h1.166Zm0-9.334H1518.1v2.334h1.166Zm9.334-3.5h-7v18.666h7Zm2.332,12.834v2.332h1.168v-2.332Zm1.168-9.334h-1.168v2.334h1.168Zm2.334-12.834a4.667,4.667,0,1,1-4.666-4.666A4.67,4.67,0,0,1,1534.43,1072.555Zm-2.334,0a2.334,2.334,0,1,0-2.332,2.334A2.333,2.333,0,0,0,1532.1,1072.555Zm-37.332,30.334a3.5,3.5,0,1,1-3.5-3.5A3.5,3.5,0,0,1,1494.764,1102.889Zm-2.334,0a1.167,1.167,0,1,0-1.168,1.166A1.168,1.168,0,0,0,1492.43,1102.889Z" fill="#fff"/>
    <text id="_13" data-name="13" transform="translate(1465.93 1078.161)" fill="#fff" font-size="26" font-family="Montserrat-SemiBold, Montserrat" font-weight="600"><tspan x="0" y="0">13</tspan></text>
  </g>
</svg>
