<?xml version="1.0" encoding="utf-8"?>
<!-- Generator: Adobe Illustrator 16.0.0, SVG Export Plug-In . SVG Version: 6.00 Build 0)  -->
<!DOCTYPE svg PUBLIC "-//W3C//DTD SVG 1.1//EN" "http://www.w3.org/Graphics/SVG/1.1/DTD/svg11.dtd">
<svg version="1.1" id="Capa_1" xmlns="http://www.w3.org/2000/svg" xmlns:xlink="http://www.w3.org/1999/xlink" x="0px" y="0px"
	 width="256px" height="256px" viewBox="147 0 256 256" enable-background="new 147 0 256 256" xml:space="preserve">
<path fill="#8392A8" d="M353.526,83.683V69.25h6.966c8.2,0,14.601-3.917,14.601-14.101v-0.383c0-10.2-6.217-13.983-14.108-13.983
	h-12.492c-1.866,0-3.05,1.184-3.05,2.483h-0.008v40.416c0,1.667,1.991,2.551,4.05,2.551
	C351.475,86.233,353.526,85.35,353.526,83.683z M353.526,47.866h6.958c4.05,0,6.533,2.3,6.533,7.15v0.75
	c0,4.85-2.483,7.149-6.533,7.149h-6.958V47.866z M326.458,157.45c-1.583-0.851-3.133-1.817-4.625-2.817l-24.125-16.3
	c-7.316-4.95-15.858-7.55-24.691-7.55h-44.275c-11.758,0-22.809,4.566-31.142,12.85c-4.275,4.267-9.159,7.833-14.492,10.601
	c-3.15,1.649-5.117,4.883-5.117,8.416c0,5.25,4.258,9.5,9.492,9.5h15.1c2.008,0,3.642-1.633,3.642-3.649s-1.633-3.65-3.642-3.65
	h-15.1c-1.208,0-2.192-0.983-2.192-2.2c0-0.816,0.45-1.55,1.175-1.934c6-3.116,11.475-7.116,16.283-11.899
	c6.95-6.934,16.183-10.75,25.992-10.75h9.908v26.783h-12.117c-2.017,0-3.642,1.634-3.642,3.65s1.625,3.649,3.642,3.649h100
	c3,0,5.441-2.434,5.441-5.434C331.975,162.866,329.859,159.333,326.458,157.45z M245.95,164.866v-26.8h27.066
	c7.375,0,14.5,2.184,20.608,6.316l24.125,16.3c1.675,1.134,3.425,2.184,5.2,3.167c0.45,0.25,0.842,0.601,1.133,1.017H245.95z
	 M258.634,181.35c0,2-1.642,3.634-3.65,3.634h-11.267c-2.008,0-3.65-1.634-3.65-3.634c0-2.017,1.642-3.649,3.65-3.649h11.267
	C256.992,177.7,258.634,179.333,258.634,181.35z M399.859,174.633l-1.158-1.917c-4.342-7.199-11.559-12.266-19.809-13.916
	l-9.417-1.867v-47.733h24.367c5.017,0,9.1-4.083,9.1-9.1V29.083c0-5.017-4.083-9.1-9.1-9.1h-71.025c-5.017,0-9.1,4.083-9.1,9.1
	v26.934c0,2.017,1.633,3.666,3.649,3.666c2.009,0,3.642-1.649,3.642-3.666V29.083c0-1,0.809-1.8,1.809-1.8h71.025
	c0.991,0,1.8,0.8,1.8,1.8V100.1c0,1-0.809,1.816-1.8,1.816h-71.025c-1,0-1.809-0.816-1.809-1.816V79.733c0-2-1.633-3.65-3.642-3.65
	c-2.017,0-3.649,1.65-3.649,3.65V100.1c0,5.017,4.083,9.1,9.1,9.1h27.625v43.95l-4.842-0.967
	c-6.675-1.333-13.191-5.366-17.508-8.283l-24.125-16.283c-9.175-6.2-19.875-9.483-30.95-9.483h-44.275
	c-14.733,0-28.592,5.733-39.033,16.117c-6.6,6.583-14.909,11.066-24.042,12.983l-5.233,1.1C152.65,149.966,147,156.916,147,164.866
	V200.2c0,4.199,2.492,8.033,6.342,9.75l14.525,6.449c0.875,4.584,3.092,8.983,6.642,12.533c4.708,4.717,10.908,7.067,17.1,7.067
	c6.208,0,12.392-2.351,17.108-7.067c3.033-3.033,5.091-6.683,6.175-10.55h121.117c1.083,3.867,3.133,7.517,6.166,10.55
	c4.575,4.567,10.642,7.084,17.108,7.084s12.533-2.517,17.108-7.084c3.033-3.033,5.083-6.683,6.167-10.55h6.916
	c7.459,0,13.525-6.066,13.525-13.517V185.95C403,181.95,401.908,178.05,399.859,174.633z M357.741,109.199h4.434v46.284
	l-4.434-0.884V109.199z M203.567,223.767c-3.191,3.199-7.441,4.949-11.958,4.949c-4.508,0-8.75-1.75-11.95-4.949
	c-5.117-5.117-6.258-12.733-3.417-18.967c0.025-0.05,0.05-0.1,0.066-0.15c0.092-0.184,0.175-0.366,0.275-0.55
	c0.042-0.083,0.083-0.167,0.133-0.25c0.083-0.167,0.167-0.316,0.258-0.467c0.066-0.116,0.125-0.217,0.191-0.333
	c0.083-0.134,0.167-0.267,0.25-0.4c0.083-0.133,0.167-0.25,0.25-0.366c0.075-0.117,0.167-0.25,0.25-0.367
	c0.092-0.133,0.2-0.267,0.3-0.383c0.083-0.117,0.158-0.217,0.242-0.317c0.117-0.149,0.242-0.3,0.367-0.433
	c0.075-0.083,0.142-0.167,0.216-0.25c0.184-0.217,0.375-0.417,0.567-0.617c0.025-0.017,0.042-0.033,0.05-0.05
	c0.042-0.033,0.083-0.066,0.117-0.1c0.167-0.167,0.333-0.334,0.517-0.483c0.034-0.05,0.083-0.083,0.125-0.117
	c0.175-0.149,0.35-0.3,0.525-0.45c0.017-0.016,0.025-0.016,0.05-0.033c6.175-5.017,15.092-5,21.267,0.018
	c0.008,0,0.017,0,0.017,0.016c0.192,0.15,0.383,0.317,0.567,0.484c0.033,0.016,0.066,0.05,0.1,0.083
	c0.208,0.183,0.417,0.383,0.625,0.583c0.208,0.233,0.425,0.45,0.634,0.684c0.091,0.1,0.175,0.2,0.267,0.3
	c0.108,0.134,0.216,0.25,0.308,0.384c0.125,0.133,0.233,0.283,0.35,0.433c0.058,0.084,0.117,0.167,0.175,0.25
	c0.133,0.184,0.267,0.367,0.392,0.55c0.017,0.034,0.042,0.067,0.059,0.101C210.05,209.116,209.317,218.017,203.567,223.767z
	 M371.225,223.767c-3.183,3.199-7.433,4.949-11.941,4.949c-4.517,0-8.758-1.75-11.95-4.949c-5.75-5.75-6.483-14.65-2.191-21.2
	c0.017-0.033,0.033-0.066,0.059-0.101c0.125-0.183,0.25-0.366,0.392-0.55c0.059-0.083,0.116-0.166,0.184-0.25
	c0.108-0.149,0.225-0.283,0.333-0.433c0.108-0.134,0.208-0.25,0.316-0.367c0.092-0.116,0.175-0.217,0.267-0.316
	c0.209-0.233,0.417-0.45,0.642-0.684c3.192-3.184,7.434-4.95,11.95-4.95c4.509,0,8.759,1.767,11.941,4.95
	c0.226,0.233,0.442,0.45,0.642,0.684c0.092,0.1,0.176,0.2,0.268,0.3c0.107,0.134,0.216,0.25,0.316,0.384
	c0.116,0.149,0.225,0.283,0.342,0.433c0.058,0.084,0.116,0.167,0.175,0.25c0.133,0.184,0.267,0.367,0.392,0.55
	c0.025,0.034,0.042,0.067,0.066,0.101C377.708,209.116,376.984,218.017,371.225,223.767z M395.7,204.866L395.7,204.866
	c0,3.434-2.792,6.217-6.226,6.217h-6.008c-0.134-5.283-2.009-10.333-5.367-14.467c-0.017-0.017-0.041-0.05-0.066-0.083
	c-0.208-0.25-0.425-0.5-0.642-0.75c-0.059-0.067-0.108-0.134-0.167-0.184c-0.225-0.267-0.466-0.517-0.716-0.75
	c-0.042-0.05-0.084-0.1-0.117-0.134c-3.142-3.149-7-5.316-11.2-6.366c-1.908-0.483-3.892-0.717-5.908-0.717
	c-1.616,0-3.208,0.15-4.758,0.467c-4.65,0.917-8.926,3.184-12.351,6.616c-0.05,0.034-0.083,0.084-0.116,0.117
	c-0.25,0.25-0.492,0.5-0.726,0.767c-0.05,0.05-0.1,0.116-0.158,0.184c-0.217,0.25-0.441,0.5-0.649,0.75
	c-0.017,0.033-0.042,0.05-0.059,0.083c-3.367,4.134-5.233,9.184-5.375,14.467H215.8c-0.142-5.3-2.017-10.35-5.383-14.483
	c-0.017-0.017-0.033-0.033-0.042-0.066c-0.225-0.267-0.458-0.533-0.684-0.8c-0.042-0.033-0.083-0.084-0.125-0.134
	c-0.275-0.3-0.558-0.6-0.85-0.884c-1.175-1.183-2.45-2.216-3.784-3.1c-4.025-2.65-8.675-3.983-13.325-3.983
	c-6.192,0-12.392,2.367-17.1,7.083c-0.275,0.268-0.533,0.534-0.792,0.817c-0.067,0.083-0.142,0.167-0.225,0.25
	c-0.175,0.2-0.35,0.417-0.525,0.616c-0.075,0.101-0.15,0.2-0.225,0.283c-0.175,0.217-0.358,0.45-0.525,0.684
	c-0.05,0.066-0.108,0.134-0.159,0.2c-0.458,0.634-0.883,1.283-1.267,1.934c-0.017,0.017-0.025,0.033-0.042,0.066
	c-0.184,0.316-0.375,0.649-0.55,0.983c-0.009,0.017-0.009,0.017-0.017,0.033c-1.267,2.417-2.117,5.033-2.517,7.75l-11.367-5.05
	c-1.216-0.55-2-1.767-2-3.083v-35.334c0-4.517,3.208-8.467,7.633-9.4l5.233-1.1c10.508-2.2,20.083-7.366,27.692-14.95
	c9.058-9.017,21.092-13.983,33.883-13.983h44.275c9.608,0,18.908,2.834,26.866,8.217l24.125,16.301
	c4.842,3.266,12.2,7.8,20.176,9.383l33.283,6.617c6.241,1.25,11.7,5.083,14.983,10.533l1.158,1.916
	c1.366,2.267,2.092,4.884,2.092,7.551V204.866z M191.609,200.75c-2.95,0-5.733,1.149-7.817,3.233c-2.1,2.1-3.25,4.883-3.25,7.833
	c0,2.967,1.15,5.733,3.25,7.833c2.083,2.084,4.867,3.25,7.817,3.25c2.967,0,5.742-1.166,7.833-3.25
	c4.317-4.316,4.317-11.35,0-15.666C197.35,201.899,194.575,200.75,191.609,200.75z M194.292,214.483
	c-0.716,0.717-1.667,1.116-2.683,1.116c-1.008,0-1.95-0.399-2.667-1.116c-0.716-0.7-1.108-1.65-1.108-2.667
	c0-1,0.392-1.95,1.108-2.667c0.717-0.717,1.659-1.116,2.667-1.116c1.017,0,1.967,0.399,2.683,1.116
	C195.75,210.616,195.75,213.017,194.292,214.483z M359.283,200.75c-2.958,0-5.741,1.149-7.833,3.233
	c-4.316,4.316-4.316,11.35,0,15.666c2.092,2.084,4.875,3.25,7.833,3.25s5.733-1.166,7.825-3.25c2.092-2.083,3.241-4.866,3.241-7.833
	c0-2.95-1.149-5.733-3.241-7.833C365.017,201.899,362.241,200.75,359.283,200.75z M361.95,214.483
	c-0.709,0.717-1.658,1.116-2.667,1.116c-1.017,0-1.958-0.399-2.675-1.116c-1.475-1.467-1.475-3.867,0-5.334
	c0.717-0.717,1.658-1.116,2.675-1.116c1.009,0,1.958,0.399,2.667,1.116c0.717,0.717,1.108,1.667,1.108,2.667
	C363.059,212.833,362.667,213.783,361.95,214.483z"/>
</svg>
