<?xml version="1.0" encoding="utf-8"?>
<!-- Generator: Adobe Illustrator 16.0.0, SVG Export Plug-In . SVG Version: 6.00 Build 0)  -->
<!DOCTYPE svg PUBLIC "-//W3C//DTD SVG 1.1//EN" "http://www.w3.org/Graphics/SVG/1.1/DTD/svg11.dtd">
<svg version="1.1" id="Capa_1" xmlns="http://www.w3.org/2000/svg" xmlns:xlink="http://www.w3.org/1999/xlink" x="0px" y="0px"
	 width="256px" height="256px" viewBox="147 0 256 256" enable-background="new 147 0 256 256" xml:space="preserve">
<g>
	<g id="Page-1_13_">
		<g id="_x30_14---Measuing-Plans">
			<path id="Shape_34_" fill="#8392A8" d="M394.471,83.028h-28.119c-0.127-0.134-0.226-0.283-0.367-0.432L351.797,69.93V40.361
				c0-4.717-3.818-8.536-8.528-8.536h-12.802c-4.71,0-8.543,3.819-8.543,8.536v2.836l-24.187-21.663
				c-3.225-2.885-8.118-2.885-11.344,0l-68.247,61.062c-0.141,0.127-0.24,0.283-0.368,0.432H189.66V70.227
				c0-11.782-9.547-21.337-21.33-21.337c-11.783,0-21.33,9.555-21.33,21.337v145.065v0.064c0,5.658,2.263,11.068,6.252,15.057
				c4.003,3.988,9.434,6.23,15.078,6.216h226.141c4.71,0,8.529-3.825,8.529-8.536V91.557C403,86.847,399.181,83.028,394.471,83.028
				L394.471,83.028z M330.467,40.361h12.802v21.931l-12.802-11.457V40.361z M292.051,27.9l68.261,61.316l-5.629,6.605l-59.774-53.48
				c-1.612-1.457-4.074-1.457-5.686,0l-59.732,53.48l-5.644-6.817L292.051,27.9z M304.866,159.825h-25.602v-34.131
				c0-2.355,1.909-4.271,4.271-4.271h17.058c2.363,0,4.272,1.917,4.272,4.271V159.825L304.866,159.825z M300.594,112.894h-17.058
				c-7.072,0-12.801,5.729-12.801,12.801v34.131h-25.601c-2.362,0-4.271-1.91-4.271-4.258V97.073l51.203-45.828l51.203,45.828
				v58.494c0,2.348-1.91,4.258-4.271,4.258h-25.602v-34.131C313.396,118.622,307.667,112.894,300.594,112.894L300.594,112.894z
				 M168.33,57.426c7.072,0,12.8,5.729,12.8,12.801v17.001v0.063v0.071l0.085,110.928c-5.092-3.847-11.641-5.234-17.865-3.777
				c-2.842,0.658-5.502,1.902-7.821,3.649V70.227C155.53,63.155,161.258,57.426,168.33,57.426z M394.471,228.093H168.33
				c-3.904,0.015-7.582-1.768-10.015-4.822c-1.824-2.278-2.815-5.114-2.786-8.034v-0.057c0.014-0.997,0.127-1.987,0.354-2.957
				c1.103-4.653,4.738-8.281,9.392-9.392c3.748-0.912,7.723-0.092,10.806,2.249c2.546,1.945,5.983,2.27,8.84,0.82
				c2.914-1.436,4.739-4.406,4.739-7.652V91.557h25.983c0.34,1.181,0.92,2.27,1.711,3.204l5.644,6.612
				c2.292,2.695,6.012,3.685,9.335,2.489v51.705c0,7.065,5.729,12.793,12.801,12.793h93.863c7.071,0,12.8-5.728,12.8-12.793v-51.719
				c0.92,0.339,1.882,0.502,2.844,0.509h0.579c2.292-0.156,4.428-1.231,5.912-2.985l5.658-6.605c0.778-0.94,1.357-2.03,1.697-3.204
				h25.983V228.093z"/>
			<path id="Shape_33_" fill="#8392A8" d="M211.004,176.897c-4.71,0-8.543,3.819-8.543,8.529v25.602c0,4.717,3.833,8.53,8.543,8.53
				h162.137c4.71,0,8.529-3.813,8.529-8.53v-25.602c0-4.71-3.819-8.529-8.529-8.529H211.004z M211.004,211.028v-25.602h8.529v12.801
				c0,2.355,1.909,4.265,4.272,4.265c2.348,0,4.257-1.909,4.257-4.265v-12.801h8.543v4.272c0,2.348,1.895,4.264,4.258,4.264
				c2.362,0,4.271-1.917,4.271-4.264v-4.272h8.529v12.801c0,2.355,1.909,4.265,4.271,4.265c2.348,0,4.257-1.909,4.257-4.265v-12.801
				h8.543v4.272c0,2.348,1.91,4.264,4.258,4.264c2.362,0,4.271-1.917,4.271-4.264v-4.272h8.529v12.801
				c0,2.355,1.923,4.265,4.271,4.265c2.361,0,4.271-1.909,4.271-4.265v-12.801h8.529v4.272c0,2.348,1.909,4.264,4.258,4.264
				c2.361,0,4.271-1.917,4.271-4.264v-4.272h8.528v12.801c0,2.355,1.924,4.265,4.271,4.265c2.362,0,4.271-1.909,4.271-4.265v-12.801
				h8.53v4.272c0,2.348,1.909,4.264,4.271,4.264c2.348,0,4.271-1.917,4.271-4.264v-4.272h8.528v12.801
				c0,2.355,1.909,4.265,4.272,4.265c2.348,0,4.258-1.909,4.258-4.265v-12.801h8.528v25.602H211.004z"/>
		</g>
	</g>
</g>
</svg>
