<?xml version="1.0" encoding="utf-8"?>
<!-- Generator: Adobe Illustrator 16.0.0, SVG Export Plug-In . SVG Version: 6.00 Build 0)  -->
<!DOCTYPE svg PUBLIC "-//W3C//DTD SVG 1.1//EN" "http://www.w3.org/Graphics/SVG/1.1/DTD/svg11.dtd">
<svg version="1.1" id="Capa_1" xmlns="http://www.w3.org/2000/svg" xmlns:xlink="http://www.w3.org/1999/xlink" x="0px" y="0px"
	 width="256px" height="256px" viewBox="147 0 256 256" enable-background="new 147 0 256 256" xml:space="preserve">
<path fill="#8392A8" d="M399.234,208.4h-0.25v-40.325c0-9.625-6.9-17.667-16.025-19.425v-40.691
	c0-10.917-8.875-19.792-19.791-19.792H186.834c-10.917,0-19.792,8.875-19.792,19.792v40.691c-9.125,1.758-16.025,9.8-16.025,19.425
	V208.4h-0.25c-2.083,0-3.767,1.692-3.767,3.758v40.075c0,2.075,1.683,3.767,3.767,3.767H170.8c1.534,0,2.917-0.941,3.492-2.367
	l7.067-17.674h187.283l7.066,17.674c0.575,1.426,1.959,2.367,3.492,2.367h20.033c2.083,0,3.767-1.691,3.767-3.767v-40.075
	C403,210.092,401.317,208.4,399.234,208.4z M174.558,107.958c0-6.775,5.508-12.275,12.275-12.275h176.333
	c6.767,0,12.274,5.5,12.274,12.275v40.325h-12.524v-27.417l3.616-7.225c0.726-1.441,0.441-3.191-0.7-4.333
	c-1.149-1.142-2.899-1.433-4.342-0.708l-6.708,3.358c-9.017-2.492-18.316-3.75-27.684-3.75c-9.358,0-18.658,1.258-27.675,3.75
	l-6.708-3.358c-1.45-0.725-3.2-0.434-4.342,0.708c-1.142,1.142-1.425,2.892-0.7,4.333l3.608,7.225v27.417h-32.566v-27.417
	l3.608-7.225c0.725-1.441,0.441-3.191-0.7-4.333c-1.142-1.142-2.892-1.433-4.333-0.708l-6.716,3.358
	c-9.017-2.492-18.317-3.75-27.675-3.75s-18.667,1.258-27.683,3.75l-6.708-3.358c-1.442-0.725-3.192-0.434-4.342,0.708
	c-1.142,1.142-1.425,2.892-0.7,4.333l3.617,7.225v27.417h-12.525V107.958z M355.417,152.308c-0.434-0.033-0.884,0.008-1.317,0.133
	c-8.767,2.559-17.85,3.858-27,3.858c-9.142,0-18.225-1.3-27-3.858c-0.342-0.1-0.699-0.142-1.058-0.142c-0.084,0-0.167,0-0.259,0.008
	c0.009-0.091,0.009-0.175,0.009-0.258v-32.066c0-0.092,0-0.175-0.009-0.267c0.441,0.042,0.892-0.017,1.316-0.133
	c8.775-2.567,17.858-3.858,27-3.858c9.15,0,18.233,1.292,27,3.858c0.434,0.117,0.884,0.175,1.317,0.133
	c-0.009,0.091-0.017,0.175-0.017,0.267v32.066C355.401,152.133,355.408,152.217,355.417,152.308z M251.217,152.308
	c-0.442-0.033-0.892,0.008-1.317,0.133c-8.775,2.559-17.858,3.858-27,3.858c-9.15,0-18.233-1.3-27-3.858
	c-0.35-0.1-0.708-0.142-1.05-0.142c-0.1,0-0.184,0-0.267,0.008c0.008-0.091,0.017-0.175,0.017-0.258v-32.066
	c0-0.092-0.008-0.175-0.017-0.267c0.433,0.042,0.883-0.017,1.316-0.133c8.767-2.567,17.85-3.858,27-3.858
	c9.142,0,18.225,1.292,27,3.858c0.425,0.117,0.875,0.175,1.317,0.133c-0.008,0.091-0.008,0.175-0.008,0.267v32.066
	C251.209,152.133,251.209,152.217,251.217,152.308z M158.525,179.85h68.883c2.075,0,3.758-1.684,3.758-3.758
	c0-2.075-1.683-3.758-3.758-3.758h-68.883v-4.258c0-6.767,5.508-12.275,12.275-12.275h13.95l-1.283,2.583
	c-0.725,1.442-0.442,3.192,0.7,4.333c1.15,1.142,2.9,1.425,4.342,0.7l6.708-3.35c9.017,2.492,18.325,3.75,27.683,3.75
	s18.658-1.258,27.675-3.75l6.716,3.35c1.425,0.717,3.2,0.434,4.333-0.7c1.142-1.15,1.425-2.892,0.7-4.333l-1.284-2.583h27.917
	l-1.284,2.583c-0.725,1.442-0.441,3.192,0.7,4.333s2.892,1.425,4.333,0.7l6.717-3.35c9.017,2.492,18.316,3.75,27.675,3.75
	s18.667-1.258,27.684-3.75l6.708,3.35c1.426,0.717,3.2,0.434,4.342-0.7c1.134-1.142,1.426-2.892,0.7-4.333l-1.283-2.583h13.95
	c6.774,0,12.274,5.508,12.274,12.275v4.258H245.109c-2.075,0-3.758,1.683-3.758,3.758c0,2.075,1.683,3.758,3.758,3.758h146.366
	v28.55h-232.95V179.85z M395.484,248.475H381.75l-7.075-17.675c-0.575-1.417-1.95-2.358-3.491-2.358H178.817
	c-1.542,0-2.917,0.941-3.491,2.358l-7.067,17.675h-13.742v-32.558h240.967V248.475z M226.908,71.633h96.184
	c2.075,0,3.758-1.675,3.758-3.758V3.75c0-2.067-1.683-3.75-3.758-3.75h-96.184c-2.075,0-3.758,1.683-3.758,3.75v64.125
	C223.15,69.958,224.834,71.633,226.908,71.633z M230.667,7.517h88.667v56.6h-88.667V7.517z M311.067,12.017h-72.133
	c-2.075,0-3.758,1.684-3.758,3.767V55.85c0,2.083,1.684,3.767,3.758,3.767h72.133c2.075,0,3.759-1.684,3.759-3.767V15.783
	C314.825,13.7,313.142,12.017,311.067,12.017z M242.692,19.533h43.709c-1.075,2.367-1.742,4.633-2.167,6.575
	c-9.675-3.858-17.442-1.2-22.525,2.033c-4.117,2.617-6.992,5.958-8.5,7.975c-4.025,0.217-7.534,1.092-10.517,2.592V19.533z
	 M307.309,52.1h-64.617v-4.159c2.733-2.9,6.934-4.358,12.517-4.358c1.325,0,2.55-0.692,3.225-1.825
	c0.409-0.692,10.284-16.708,26.909-6.725c1.158,0.692,2.6,0.708,3.767,0.042c1.175-0.659,1.908-1.9,1.925-3.25
	c0-0.075,0.092-6.5,3.892-12.292h12.384V52.1z M295.292,43.833v-4.008c0-2.075,1.675-3.759,3.75-3.759
	c2.083,0,3.758,1.684,3.758,3.759v4.008c0,2.083-1.675,3.75-3.758,3.75C296.967,47.583,295.292,45.917,295.292,43.833z
	 M278.758,39.825v4.008c0,2.083-1.683,3.75-3.758,3.75s-3.758-1.667-3.758-3.75v-4.008c0-2.075,1.683-3.759,3.758-3.759
	S278.758,37.75,278.758,39.825z"/>
</svg>
