<?xml version="1.0" encoding="utf-8"?>
<!-- Generator: Adobe Illustrator 16.0.0, SVG Export Plug-In . SVG Version: 6.00 Build 0)  -->
<!DOCTYPE svg PUBLIC "-//W3C//DTD SVG 1.1//EN" "http://www.w3.org/Graphics/SVG/1.1/DTD/svg11.dtd">
<svg version="1.1" id="Capa_1" xmlns="http://www.w3.org/2000/svg" xmlns:xlink="http://www.w3.org/1999/xlink" x="0px" y="0px"
	 width="36px" height="36px" viewBox="0 0 36 36" enable-background="new 0 0 36 36" xml:space="preserve">
<path fill="#FFFFFF" d="M18.004,0C8.099,0,0,8.106,0,18c0,9.897,8.099,18,18.004,18C27.901,36,36,27.897,36,18
	C36,8.106,27.901,0,18.004,0z M18.004,32.397c-7.92,0-14.401-6.478-14.401-14.397c0-7.92,6.481-14.394,14.401-14.394
	c7.917,0,14.397,6.473,14.397,14.394C32.401,25.92,25.921,32.397,18.004,32.397z M28.477,24.639
	c-0.277,0.554-0.848,0.881-1.431,0.881c-0.244,0-0.484-0.055-0.708-0.17l-9.938-4.938v-10.03c0-0.885,0.72-1.592,1.604-1.592
	c0.881,0,1.593,0.707,1.593,1.592v8.057l8.156,4.058C28.543,22.889,28.861,23.848,28.477,24.639z"/>
</svg>
