<?xml version="1.0" encoding="utf-8"?>
<!-- Generator: Adobe Illustrator 16.0.0, SVG Export Plug-In . SVG Version: 6.00 Build 0)  -->
<!DOCTYPE svg PUBLIC "-//W3C//DTD SVG 1.1//EN" "http://www.w3.org/Graphics/SVG/1.1/DTD/svg11.dtd">
<svg version="1.1" id="Capa_1" xmlns="http://www.w3.org/2000/svg" xmlns:xlink="http://www.w3.org/1999/xlink" x="0px" y="0px"
	 width="256px" height="256px" viewBox="147 0 256 256" enable-background="new 147 0 256 256" xml:space="preserve">
<path fill="#8392A8" d="M400.987,88.717c-1.476-1.617-3.566-2.55-5.75-2.55h-5.325c-1.017,0-2,0.15-2.941,0.383V65.867
	c0-8.683-7.075-15.767-15.775-15.767h-84.166c-4.816,0-9.125,2.167-12.025,5.583c-2.9-3.417-7.208-5.583-12.025-5.583h-84.167
	c-8.7,0-15.775,7.083-15.775,15.767V86.55c-0.941-0.233-1.925-0.383-2.941-0.383h-5.325c-2.183,0-4.275,0.933-5.75,2.55
	c-1.467,1.6-2.183,3.783-1.983,5.95l6.908,72.533c0.583,6.066,5.617,10.633,11.717,10.633h0.809l-3.392,23.783
	c-0.159,1.083,0.158,2.167,0.875,2.983c0.708,0.833,1.741,1.3,2.833,1.3h8.017c1.5,0,2.858-0.9,3.442-2.267l11.058-25.8h5.542
	c2.066,0,3.75-1.667,3.75-3.75c0-2.067-1.684-3.75-3.75-3.75h-29.184c-2.217,0-4.042-1.65-4.25-3.85l-6.908-72.533
	c0-0.033-0.008-0.1,0.066-0.2c0.075-0.083,0.159-0.083,0.2-0.083h5.325c2.066,0,3.825,1.483,4.2,3.517l6.758,37.167v3.667
	c0,6.483,5.275,11.767,11.767,11.767h84.167c3.092,0,5.917-1.2,8.017-3.15c2.101,1.95,4.925,3.15,8.017,3.15h84.167
	c6.491,0,11.767-5.284,11.767-11.767v-3.667l6.758-37.167c0.375-2.034,2.134-3.517,4.2-3.517h5.325c0.042,0,0.125,0,0.2,0.083
	c0.074,0.1,0.066,0.167,0.066,0.2l-6.908,72.533c-0.209,2.2-2.033,3.85-4.25,3.85H210.878c-2.075,0-3.75,1.683-3.75,3.75
	c0,2.083,1.675,3.75,3.75,3.75h149.825l11.058,25.8c0.584,1.367,1.942,2.267,3.442,2.267h8.017c1.092,0,2.125-0.466,2.833-1.3
	c0.717-0.816,1.033-1.9,0.875-2.983l-3.392-23.783h0.809c6.1,0,11.133-4.567,11.717-10.633l6.899-72.533
	C403.17,92.5,402.453,90.317,400.987,88.717z M174.053,177.833h7.083l-8.808,20.566h-1.217L174.053,177.833z M271.253,138.017
	c0,2.35-1.917,4.267-4.267,4.267H182.82c-2.358,0-4.267-1.917-4.267-4.267V126c0-2.35,1.917-4.267,4.267-4.267h84.167
	c2.35,0,4.267,1.917,4.267,4.267V138.017z M271.253,109.967c0,2.35-1.917,4.267-4.267,4.267H182.82
	c-2.767,0-5.325,0.967-7.333,2.567l-3.817-20.967c-0.208-1.184-0.6-2.283-1.133-3.3V65.867c0-4.55,3.708-8.267,8.275-8.267h84.167
	c4.566,0,8.275,3.717,8.275,8.267V109.967z M379.461,92.534c-0.524,1.017-0.916,2.116-1.125,3.3L374.52,116.8
	c-2.009-1.6-4.566-2.567-7.333-2.567h-4.009c-2.066,0-3.75,1.684-3.75,3.75c0,2.067,1.684,3.75,3.75,3.75h4.009
	c2.358,0,4.267,1.917,4.267,4.267v12.017l0,0c0,2.35-1.908,4.267-4.267,4.267H283.02c-2.35,0-4.267-1.917-4.267-4.267V126
	c0-2.35,1.917-4.267,4.267-4.267h64.125c2.075,0,3.75-1.683,3.75-3.75c0-2.066-1.675-3.75-3.75-3.75H283.02
	c-2.35,0-4.267-1.917-4.267-4.267V65.883c0-4.566,3.709-8.283,8.275-8.283h84.166c4.566,0,8.267,3.717,8.267,8.283V92.534z
	 M377.678,198.4l-8.808-20.566h7.083l2.941,20.566H377.678z M206.653,81.917c0,2.066-1.683,3.75-3.75,3.75
	c-2.075,0-3.775-1.684-3.775-3.75c0-2.083,1.658-3.75,3.733-3.75h0.042C204.97,78.167,206.653,79.833,206.653,81.917z
	 M350.895,81.917c0,2.066-1.675,3.75-3.75,3.75c-2.066,0-3.767-1.684-3.767-3.75c0-2.083,1.658-3.75,3.725-3.75h0.042
	C349.22,78.167,350.895,79.833,350.895,81.917z M242.72,81.917c0,2.066-1.675,3.75-3.75,3.75c-2.067,0-3.775-1.684-3.775-3.75
	c0-2.083,1.667-3.75,3.742-3.75h0.033C241.045,78.167,242.72,79.833,242.72,81.917z M314.87,81.917c0,2.066-1.684,3.75-3.75,3.75
	c-2.075,0-3.775-1.684-3.775-3.75c0-2.083,1.658-3.75,3.725-3.75h0.051C313.187,78.167,314.87,79.833,314.87,81.917z"/>
</svg>
