<?xml version="1.0" encoding="utf-8"?>
<!-- Generator: Adobe Illustrator 16.0.0, SVG Export Plug-In . SVG Version: 6.00 Build 0)  -->
<!DOCTYPE svg PUBLIC "-//W3C//DTD SVG 1.1//EN" "http://www.w3.org/Graphics/SVG/1.1/DTD/svg11.dtd">
<svg version="1.1" id="Capa_1" xmlns="http://www.w3.org/2000/svg" xmlns:xlink="http://www.w3.org/1999/xlink" x="0px" y="0px"
	 width="256px" height="256px" viewBox="147 0 256 256" enable-background="new 147 0 256 256" xml:space="preserve">
<path fill="#FFFFFF" d="M320.598,0h-91.195c-14.717,0-26.684,11.967-26.684,26.675v202.642c0,14.717,11.967,26.684,26.684,26.684
	h91.195c14.717,0,26.684-11.967,26.684-26.684V26.675C347.281,11.967,335.315,0,320.598,0z M332.732,229.316
	c0,6.691-5.434,12.125-12.134,12.125h-91.195c-6.7,0-12.133-5.434-12.133-12.125V26.675c0-6.683,5.433-12.125,12.133-12.125h5.717
	c0.033,0.525-0.083,1.008,0.066,1.559l0.317,1.283c1.333,5.175,6.767,9.408,12.1,9.408h12.316h30.179h12.301
	c5.333,0,10.783-4.233,12.083-9.408l0.333-1.283c0.134-0.55,0.018-1.033,0.067-1.559h5.716c6.7,0,12.134,5.442,12.134,12.125
	V229.316z M295.815,221.567c0,3.833-3.1,6.941-6.933,6.941h-27.763c-3.817,0-6.934-3.108-6.934-6.941
	c0-3.825,3.117-6.934,6.934-6.934h27.763C292.715,214.633,295.815,217.742,295.815,221.567z"/>
</svg>
