<?xml version="1.0" encoding="utf-8"?>
<!-- Generator: Adobe Illustrator 16.0.0, SVG Export Plug-In . SVG Version: 6.00 Build 0)  -->
<!DOCTYPE svg PUBLIC "-//W3C//DTD SVG 1.1//EN" "http://www.w3.org/Graphics/SVG/1.1/DTD/svg11.dtd">
<svg version="1.1" id="Capa_1" xmlns="http://www.w3.org/2000/svg" xmlns:xlink="http://www.w3.org/1999/xlink" x="0px" y="0px"
	 width="36px" height="36px" viewBox="0 0 36 36" enable-background="new 0 0 36 36" xml:space="preserve">
<path fill="#FFFFFF" d="M18.896,23.531V13.5c0-0.492-0.402-0.895-0.895-0.895s-0.895,0.402-0.895,0.895v10.031
	c-1.559,0.402-2.715,1.801-2.715,3.469c0,1.988,1.625,3.605,3.609,3.605s3.602-1.617,3.602-3.605
	C21.604,25.332,20.455,23.934,18.896,23.531L18.896,23.531z M18.896,23.531 M24.303,20.629V6.305C24.303,2.832,21.475,0,18.002,0
	c-3.469,0-6.301,2.832-6.301,6.305v14.324C10.037,22.254,8.998,24.496,8.998,27c0,4.969,4.039,9,9.004,9c4.969,0,9-4.031,9-9
	C27.002,24.496,25.963,22.254,24.303,20.629L24.303,20.629z M18.002,32.398c-2.984,0-5.398-2.418-5.398-5.398
	c0-1.984,1.094-3.707,2.699-4.648V6.305c0-1.496,1.207-2.699,2.699-2.699c1.48,0,2.695,1.203,2.695,2.699v16.047
	c1.609,0.941,2.699,2.664,2.699,4.648C23.396,29.98,20.979,32.398,18.002,32.398L18.002,32.398z M18.002,32.398"/>
</svg>
